<svg width="1920" height="263" viewBox="0 0 1920 263" fill="none" xmlns="http://www.w3.org/2000/svg">
<path d="M0 0L130.097 36.0704C211.409 58.6148 297.503 57.1857 378.021 31.9551C445.024 10.9598 516.093 6.38508 585.234 18.6167L636.253 27.6425C695.162 38.0639 755.462 37.8291 814.288 26.9494L848.742 20.577C921.92 7.04293 997.237 10.636 1068.79 31.0746C1156.25 56.0562 1249 55.7814 1336.31 30.2822L1339.04 29.4851C1405.59 10.0481 1475.51 4.90117 1544.19 14.382L1611.15 23.6254C1656.39 29.8703 1702.28 29.8875 1747.52 23.6766L1920 0V263H0V0Z" fill="url(#paint0_linear_18_18)" fill-opacity="0.8"/>
<defs>
<linearGradient id="paint0_linear_18_18" x1="0" y1="131.5" x2="1920" y2="131.5" gradientUnits="userSpaceOnUse">
<stop stop-color="#212A3E"/>
<stop offset="0.5" stop-color="#374562"/>
<stop offset="1" stop-color="#4B608E"/>
</linearGradient>
</defs>
</svg>
