<svg width="18" height="35" viewBox="0 0 18 35" fill="none" xmlns="http://www.w3.org/2000/svg">
<path d="M8.99999 34.5L17.6603 19.5L0.339742 19.5L8.99999 34.5ZM10.5 20.9999C10.5 20.9854 10.5 20.9709 10.5 20.9564C10.5 20.9419 10.5 20.9274 10.5 20.9129C10.5 20.8984 10.5 20.8839 10.5 20.8693C10.5 20.8548 10.5 20.8403 10.5 20.8258C10.5 20.8112 10.5 20.7967 10.5 20.7822C10.5 20.7676 10.5 20.7531 10.5 20.7386C10.5 20.724 10.5 20.7095 10.5 20.6949C10.5 20.6804 10.5 20.6658 10.5 20.6513C10.5 20.6367 10.5 20.6221 10.5 20.6076C10.5 20.593 10.5 20.5784 10.5 20.5639C10.5 20.5493 10.5 20.5347 10.5 20.5202C10.5 20.5056 10.5 20.491 10.5 20.4764C10.5 20.4618 10.5 20.4472 10.5 20.4326C10.5 20.418 10.5 20.4035 10.5 20.3889C10.5 20.3743 10.5 20.3596 10.5 20.345C10.5 20.3304 10.5 20.3158 10.5 20.3012C10.5 20.2866 10.5 20.272 10.5 20.2574C10.5 20.2427 10.5 20.2281 10.5 20.2135C10.5 20.1989 10.5 20.1842 10.5 20.1696C10.5 20.155 10.5 20.1403 10.5 20.1257C10.5 20.1111 10.5 20.0964 10.5 20.0818C10.5 20.0671 10.5 20.0525 10.5 20.0378C10.5 20.0232 10.5 20.0085 10.5 19.9939C10.5 19.9792 10.5 19.9645 10.5 19.9499C10.5 19.9352 10.5 19.9205 10.5 19.9059C10.5 19.8912 10.5 19.8765 10.5 19.8618C10.5 19.8472 10.5 19.8325 10.5 19.8178C10.5 19.8031 10.5 19.7884 10.5 19.7737C10.5 19.759 10.5 19.7444 10.5 19.7297C10.5 19.715 10.5 19.7003 10.5 19.6856C10.5 19.6709 10.5 19.6562 10.5 19.6415C10.5 19.6267 10.5 19.612 10.5 19.5973C10.5 19.5826 10.5 19.5679 10.5 19.5532C10.5 19.5385 10.5 19.5237 10.5 19.509C10.5 19.4943 10.5 19.4796 10.5 19.4648C10.5 19.4501 10.5 19.4354 10.5 19.4206C10.5 19.4059 10.5 19.3912 10.5 19.3764C10.5 19.3617 10.5 19.3469 10.5 19.3322C10.5 19.3174 10.5 19.3027 10.5 19.2879C10.5 19.2732 10.5 19.2584 10.5 19.2437C10.5 19.2289 10.5 19.2142 10.5 19.1994C10.5 19.1846 10.5 19.1699 10.5 19.1551C10.5 19.1403 10.5 19.1256 10.5 19.1108C10.5 19.096 10.5 19.0812 10.5 19.0665C10.5 19.0517 10.5 19.0369 10.5 19.0221C10.5 19.0073 10.5 18.9926 10.5 18.9778C10.5 18.963 10.5 18.9482 10.5 18.9334C10.5 18.9186 10.5 18.9038 10.5 18.889C10.5 18.8742 10.5 18.8594 10.5 18.8446C10.5 18.8298 10.5 18.815 10.5 18.8002C10.5 18.7854 10.5 18.7706 10.5 18.7558C10.5 18.741 10.5 18.7262 10.5 18.7113C10.5 18.6965 10.5 18.6817 10.5 18.6669C10.5 18.6521 10.5 18.6373 10.5 18.6224C10.5 18.6076 10.5 18.5928 10.5 18.578C10.5 18.5631 10.5 18.5483 10.5 18.5335C10.5 18.5186 10.5 18.5038 10.5 18.489C10.5 18.4741 10.5 18.4593 10.5 18.4444C10.5 18.4296 10.5 18.4148 10.5 18.3999C10.5 18.3851 10.5 18.3702 10.5 18.3554C10.5 18.3405 10.5 18.3257 10.5 18.3108C10.5 18.296 10.5 18.2811 10.5 18.2663C10.5 18.2514 10.5 18.2365 10.5 18.2217C10.5 18.2068 10.5 18.192 10.5 18.1771C10.5 18.1622 10.5 18.1474 10.5 18.1325C10.5 18.1176 10.5 18.1028 10.5 18.0879C10.5 18.073 10.5 18.0582 10.5 18.0433C10.5 18.0284 10.5 18.0135 10.5 17.9987C10.5 17.9838 10.5 17.9689 10.5 17.954C10.5 17.9391 10.5 17.9243 10.5 17.9094C10.5 17.8945 10.5 17.8796 10.5 17.8647C10.5 17.8498 10.5 17.8349 10.5 17.82C10.5 17.8051 10.5 17.7903 10.5 17.7754C10.5 17.7605 10.5 17.7456 10.5 17.7307C10.5 17.7158 10.5 17.7009 10.5 17.686C10.5 17.6711 10.5 17.6562 10.5 17.6413C10.5 17.6264 10.5 17.6115 10.5 17.5966C10.5 17.5817 10.5 17.5667 10.5 17.5518C10.5 17.5369 10.5 17.522 10.5 17.5071C10.5 17.4922 10.5 17.4773 10.5 17.4624C10.5 17.4475 10.5 17.4325 10.5 17.4176C10.5 17.4027 10.5 17.3878 10.5 17.3729C10.5 17.358 10.5 17.343 10.5 17.3281C10.5 17.3132 10.5 17.2983 10.5 17.2833C10.5 17.2684 10.5 17.2535 10.5 17.2386C10.5 17.2236 10.5 17.2087 10.5 17.1938C10.5 17.1789 10.5 17.1639 10.5 17.149C10.5 17.1341 10.5 17.1191 10.5 17.1042C10.5 17.0893 10.5 17.0743 10.5 17.0594C10.5 17.0445 10.5 17.0295 10.5 17.0146C10.5 16.9996 10.5 16.9847 10.5 16.9698C10.5 16.9548 10.5 16.9399 10.5 16.9249C10.5 16.91 10.5 16.8951 10.5 16.8801C10.5 16.8652 10.5 16.8502 10.5 16.8353C10.5 16.8203 10.5 16.8054 10.5 16.7905C10.5 16.7755 10.5 16.7606 10.5 16.7456C10.5 16.7307 10.5 16.7157 10.5 16.7008C10.5 16.6858 10.5 16.6709 10.5 16.6559C10.5 16.641 10.5 16.626 10.5 16.6111C10.5 16.5961 10.5 16.5812 10.5 16.5662C10.5 16.5512 10.5 16.5363 10.5 16.5213C10.5 16.5064 10.5 16.4914 10.5 16.4765C10.5 16.4615 10.5 16.4466 10.5 16.4316C10.5 16.4166 10.5 16.4017 10.5 16.3867C10.5 16.3718 10.5 16.3568 10.5 16.3418C10.5 16.3269 10.5 16.3119 10.5 16.297C10.5 16.282 10.5 16.267 10.5 16.2521C10.5 16.2371 10.5 16.2222 10.5 16.2072C10.5 16.1922 10.5 16.1773 10.5 16.1623C10.5 16.1473 10.5 16.1324 10.5 16.1174C10.5 16.1024 10.5 16.0875 10.5 16.0725C10.5 16.0576 10.5 16.0426 10.5 16.0276C10.5 16.0127 10.5 15.9977 10.5 15.9827C10.5 15.9678 10.5 15.9528 10.5 15.9378C10.5 15.9229 10.5 15.9079 10.5 15.8929C10.5 15.878 10.5 15.863 10.5 15.848C10.5 15.8331 10.5 15.8181 10.5 15.8031C10.5 15.7882 10.5 15.7732 10.5 15.7582C10.5 15.7433 10.5 15.7283 10.5 15.7133C10.5 15.6984 10.5 15.6834 10.5 15.6684C10.5 15.6535 10.5 15.6385 10.5 15.6235C10.5 15.6085 10.5 15.5936 10.5 15.5786C10.5 15.5636 10.5 15.5487 10.5 15.5337C10.5 15.5187 10.5 15.5038 10.5 15.4888C10.5 15.4738 10.5 15.4589 10.5 15.4439C10.5 15.4289 10.5 15.414 10.5 15.399C10.5 15.384 10.5 15.3691 10.5 15.3541C10.5 15.3391 10.5 15.3242 10.5 15.3092C10.5 15.2942 10.5 15.2793 10.5 15.2643C10.5 15.2493 10.5 15.2344 10.5 15.2194C10.5 15.2044 10.5 15.1895 10.5 15.1745C10.5 15.1595 10.5 15.1446 10.5 15.1296C10.5 15.1147 10.5 15.0997 10.5 15.0847C10.5 15.0698 10.5 15.0548 10.5 15.0398C10.5 15.0249 10.5 15.0099 10.5 14.995C10.5 14.98 10.5 14.965 10.5 14.9501C10.5 14.9351 10.5 14.9202 10.5 14.9052C10.5 14.8902 10.5 14.8753 10.5 14.8603C10.5 14.8454 10.5 14.8304 10.5 14.8154C10.5 14.8005 10.5 14.7855 10.5 14.7706C10.5 14.7556 10.5 14.7407 10.5 14.7257C10.5 14.7108 10.5 14.6958 10.5 14.6808C10.5 14.6659 10.5 14.6509 10.5 14.636C10.5 14.621 10.5 14.6061 10.5 14.5911C10.5 14.5762 10.5 14.5612 10.5 14.5463C10.5 14.5313 10.5 14.5164 10.5 14.5014C10.5 14.4865 10.5 14.4715 10.5 14.4566C10.5 14.4417 10.5 14.4267 10.5 14.4118C10.5 14.3968 10.5 14.3819 10.5 14.3669C10.5 14.352 10.5 14.3371 10.5 14.3221C10.5 14.3072 10.5 14.2922 10.5 14.2773C10.5 14.2624 10.5 14.2474 10.5 14.2325C10.5 14.2175 10.5 14.2026 10.5 14.1877C10.5 14.1727 10.5 14.1578 10.5 14.1429C10.5 14.1279 10.5 14.113 10.5 14.0981C10.5 14.0831 10.5 14.0682 10.5 14.0533C10.5 14.0384 10.5 14.0234 10.5 14.0085C10.5 13.9936 10.5 13.9787 10.5 13.9637C10.5 13.9488 10.5 13.9339 10.5 13.919C10.5 13.9041 10.5 13.8891 10.5 13.8742C10.5 13.8593 10.5 13.8444 10.5 13.8295C10.5 13.8145 10.5 13.7996 10.5 13.7847C10.5 13.7698 10.5 13.7549 10.5 13.74C10.5 13.7251 10.5 13.7102 10.5 13.6953C10.5 13.6804 10.5 13.6654 10.5 13.6505C10.5 13.6356 10.5 13.6207 10.5 13.6058C10.5 13.5909 10.5 13.576 10.5 13.5611C10.5 13.5462 10.5 13.5313 10.5 13.5164C10.5 13.5015 10.5 13.4866 10.5 13.4718C10.5 13.4569 10.5 13.442 10.5 13.4271C10.5 13.4122 10.5 13.3973 10.5 13.3824C10.5 13.3675 10.5 13.3526 10.5 13.3378C10.5 13.3229 10.5 13.308 10.5 13.2931C10.5 13.2782 10.5 13.2634 10.5 13.2485C10.5 13.2336 10.5 13.2187 10.5 13.2039C10.5 13.189 10.5 13.1741 10.5 13.1592C10.5 13.1444 10.5 13.1295 10.5 13.1146C10.5 13.0998 10.5 13.0849 10.5 13.07C10.5 13.0552 10.5 13.0403 10.5 13.0255C10.5 13.0106 10.5 12.9957 10.5 12.9809C10.5 12.966 10.5 12.9512 10.5 12.9363C10.5 12.9215 10.5 12.9066 10.5 12.8918C10.5 12.8769 10.5 12.8621 10.5 12.8473C10.5 12.8324 10.5 12.8176 10.5 12.8027C10.5 12.7879 10.5 12.7731 10.5 12.7582C10.5 12.7434 10.5 12.7286 10.5 12.7137C10.5 12.6989 10.5 12.6841 10.5 12.6692C10.5 12.6544 10.5 12.6396 10.5 12.6248C10.5 12.6099 10.5 12.5951 10.5 12.5803C10.5 12.5655 10.5 12.5507 10.5 12.5359C10.5 12.521 10.5 12.5062 10.5 12.4914C10.5 12.4766 10.5 12.4618 10.5 12.447C10.5 12.4322 10.5 12.4174 10.5 12.4026C10.5 12.3878 10.5 12.373 10.5 12.3582C10.5 12.3434 10.5 12.3286 10.5 12.3138C10.5 12.299 10.5 12.2843 10.5 12.2695C10.5 12.2547 10.5 12.2399 10.5 12.2251C10.5 12.2103 10.5 12.1956 10.5 12.1808C10.5 12.166 10.5 12.1512 10.5 12.1365C10.5 12.1217 10.5 12.1069 10.5 12.0922C10.5 12.0774 10.5 12.0626 10.5 12.0479C10.5 12.0331 10.5 12.0184 10.5 12.0036C10.5 11.9888 10.5 11.9741 10.5 11.9593C10.5 11.9446 10.5 11.9299 10.5 11.9151C10.5 11.9004 10.5 11.8856 10.5 11.8709C10.5 11.8561 10.5 11.8414 10.5 11.8267C10.5 11.8119 10.5 11.7972 10.5 11.7825C10.5 11.7678 10.5 11.753 10.5 11.7383C10.5 11.7236 10.5 11.7089 10.5 11.6941C10.5 11.6794 10.5 11.6647 10.5 11.65C10.5 11.6353 10.5 11.6206 10.5 11.6059C10.5 11.5912 10.5 11.5765 10.5 11.5618C10.5 11.5471 10.5 11.5324 10.5 11.5177C10.5 11.503 10.5 11.4883 10.5 11.4736C10.5 11.4589 10.5 11.4442 10.5 11.4296C10.5 11.4149 10.5 11.4002 10.5 11.3855C10.5 11.3709 10.5 11.3562 10.5 11.3415C10.5 11.3268 10.5 11.3122 10.5 11.2975C10.5 11.2829 10.5 11.2682 10.5 11.2535C10.5 11.2389 10.5 11.2242 10.5 11.2096C10.5 11.1949 10.5 11.1803 10.5 11.1656C10.5 11.151 10.5 11.1363 10.5 11.1217C10.5 11.1071 10.5 11.0924 10.5 11.0778C10.5 11.0632 10.5 11.0486 10.5 11.0339C10.5 11.0193 10.5 11.0047 10.5 10.9901C10.5 10.9755 10.5 10.9608 10.5 10.9462C10.5 10.9316 10.5 10.917 10.5 10.9024C10.5 10.8878 10.5 10.8732 10.5 10.8586C10.5 10.844 10.5 10.8294 10.5 10.8148C10.5 10.8002 10.5 10.7856 10.5 10.7711C10.5 10.7565 10.5 10.7419 10.5 10.7273C10.5 10.7128 10.5 10.6982 10.5 10.6836C10.5 10.669 10.5 10.6545 10.5 10.6399C10.5 10.6254 10.5 10.6108 10.5 10.5962C10.5 10.5817 10.5 10.5671 10.5 10.5526C10.5 10.538 10.5 10.5235 10.5 10.509C10.5 10.4944 10.5 10.4799 10.5 10.4654C10.5 10.4508 10.5 10.4363 10.5 10.4218C10.5 10.4072 10.5 10.3927 10.5 10.3782C10.5 10.3637 10.5 10.3492 10.5 10.3347C10.5 10.3202 10.5 10.3057 10.5 10.2912C10.5 10.2767 10.5 10.2622 10.5 10.2477C10.5 10.2332 10.5 10.2187 10.5 10.2042C10.5 10.1897 10.5 10.1752 10.5 10.1608C10.5 10.1463 10.5 10.1318 10.5 10.1173C10.5 10.1029 10.5 10.0884 10.5 10.0739C10.5 10.0595 10.5 10.045 10.5 10.0306C10.5 10.0161 10.5 10.0017 10.5 9.98721C10.5 9.97277 10.5 9.95833 10.5 9.94389C10.5 9.92945 10.5 9.91502 10.5 9.90059C10.5 9.88616 10.5 9.87174 10.5 9.85732C10.5 9.8429 10.5 9.82848 10.5 9.81407C10.5 9.79966 10.5 9.78525 10.5 9.77085C10.5 9.75644 10.5 9.74204 10.5 9.72765C10.5 9.71326 10.5 9.69886 10.5 9.68448C10.5 9.67009 10.5 9.65571 10.5 9.64133C10.5 9.62696 10.5 9.61258 10.5 9.59821C10.5 9.58384 10.5 9.56948 10.5 9.55512C10.5 9.54076 10.5 9.52641 10.5 9.51205C10.5 9.4977 10.5 9.48336 10.5 9.46901C10.5 9.45467 10.5 9.44033 10.5 9.426C10.5 9.41167 10.5 9.39734 10.5 9.38302C10.5 9.36869 10.5 9.35437 10.5 9.34006C10.5 9.32574 10.5 9.31143 10.5 9.29713C10.5 9.28282 10.5 9.26852 10.5 9.25423C10.5 9.23993 10.5 9.22564 10.5 9.21135C10.5 9.19706 10.5 9.18278 10.5 9.1685C10.5 9.15423 10.5 9.13995 10.5 9.12569C10.5 9.11142 10.5 9.09715 10.5 9.0829C10.5 9.06864 10.5 9.05438 10.5 9.04013C10.5 9.02589 10.5 9.01164 10.5 8.9974C10.5 8.98316 10.5 8.96893 10.5 8.9547C10.5 8.94047 10.5 8.92624 10.5 8.91203C10.5 8.89781 10.5 8.88359 10.5 8.86938C10.5 8.85517 10.5 8.84097 10.5 8.82677C10.5 8.81257 10.5 8.79837 10.5 8.78418C10.5 8.76999 10.5 8.75581 10.5 8.74163C10.5 8.72745 10.5 8.71327 10.5 8.6991C10.5 8.68493 10.5 8.67077 10.5 8.65661C10.5 8.64245 10.5 8.6283 10.5 8.61415C10.5 8.6 10.5 8.58585 10.5 8.57171C10.5 8.55758 10.5 8.54344 10.5 8.52931C10.5 8.51518 10.5 8.50106 10.5 8.48694C10.5 8.47282 10.5 8.45871 10.5 8.4446C10.5 8.4305 10.5 8.41639 10.5 8.4023C10.5 8.3882 10.5 8.37411 10.5 8.36002C10.5 8.34594 10.5 8.33186 10.5 8.31778C10.5 8.3037 10.5 8.28963 10.5 8.27557C10.5 8.2615 10.5 8.24744 10.5 8.23339C10.5 8.21934 10.5 8.20529 10.5 8.19124C10.5 8.1772 10.5 8.16316 10.5 8.14913C10.5 8.1351 10.5 8.12107 10.5 8.10705C10.5 8.09303 10.5 8.07901 10.5 8.065C10.5 8.05099 10.5 8.03699 10.5 8.02299C10.5 8.00899 10.5 7.995 10.5 7.98101C10.5 7.96702 10.5 7.95304 10.5 7.93906C10.5 7.92509 10.5 7.91112 10.5 7.89715C10.5 7.88319 10.5 7.86923 10.5 7.85527C10.5 7.84132 10.5 7.82737 10.5 7.81343C10.5 7.79949 10.5 7.78555 10.5 7.77162C10.5 7.75769 10.5 7.74376 10.5 7.72985C10.5 7.71593 10.5 7.70201 10.5 7.68811C10.5 7.6742 10.5 7.6603 10.5 7.6464C10.5 7.63251 10.5 7.61862 10.5 7.60473C10.5 7.59085 10.5 7.57697 10.5 7.5631C10.5 7.54923 10.5 7.53536 10.5 7.5215C10.5 7.50764 10.5 7.49379 10.5 7.47994C10.5 7.46609 10.5 7.45225 10.5 7.43841C10.5 7.42458 10.5 7.41075 10.5 7.39692C10.5 7.3831 10.5 7.36928 10.5 7.35547C10.5 7.34166 10.5 7.32785 10.5 7.31405C10.5 7.30025 10.5 7.28646 10.5 7.27267C10.5 7.25889 10.5 7.24511 10.5 7.23133C10.5 7.21756 10.5 7.20379 10.5 7.19003C10.5 7.17626 10.5 7.16251 10.5 7.14876C10.5 7.13501 10.5 7.12126 10.5 7.10753C10.5 7.09379 10.5 7.08006 10.5 7.06633C10.5 7.05261 10.5 7.03889 10.5 7.02518C10.5 7.01147 10.5 6.99776 10.5 6.98406C10.5 6.97037 10.5 6.95667 10.5 6.94299C10.5 6.9293 10.5 6.91562 10.5 6.90195C10.5 6.88827 10.5 6.87461 10.5 6.86095C10.5 6.84729 10.5 6.83363 10.5 6.81999C10.5 6.80634 10.5 6.7927 10.5 6.77906C10.5 6.76543 10.5 6.7518 10.5 6.73818C10.5 6.72456 10.5 6.71094 10.5 6.69734C10.5 6.68373 10.5 6.67013 10.5 6.65653C10.5 6.64294 10.5 6.62935 10.5 6.61577C10.5 6.60219 10.5 6.58861 10.5 6.57505C10.5 6.56148 10.5 6.54792 10.5 6.53436C10.5 6.52081 10.5 6.50726 10.5 6.49372C10.5 6.48018 10.5 6.46665 10.5 6.45312C10.5 6.43959 10.5 6.42607 10.5 6.41256C10.5 6.39905 10.5 6.38554 10.5 6.37204C10.5 6.35854 10.5 6.34505 10.5 6.33156C10.5 6.31807 10.5 6.3046 10.5 6.29112C10.5 6.27765 10.5 6.26419 10.5 6.25073C10.5 6.23727 10.5 6.22382 10.5 6.21038C10.5 6.19693 10.5 6.18349 10.5 6.17006C10.5 6.15663 10.5 6.14321 10.5 6.1298C10.5 6.11638 10.5 6.10297 10.5 6.08957C10.5 6.07617 10.5 6.06277 10.5 6.04939C10.5 6.036 10.5 6.02262 10.5 6.00924C10.5 5.99587 10.5 5.98251 10.5 5.96915C10.5 5.95579 10.5 5.94244 10.5 5.92909C10.5 5.91575 10.5 5.90241 10.5 5.88908C10.5 5.87575 10.5 5.86243 10.5 5.84911C10.5 5.8358 10.5 5.82249 10.5 5.80919C10.5 5.79589 10.5 5.7826 10.5 5.76931C10.5 5.75603 10.5 5.74275 10.5 5.72948C10.5 5.7162 10.5 5.70294 10.5 5.68969C10.5 5.67643 10.5 5.66318 10.5 5.64994C10.5 5.6367 10.5 5.62346 10.5 5.61024C10.5 5.59701 10.5 5.58379 10.5 5.57058C10.5 5.55737 10.5 5.54417 10.5 5.53097C10.5 5.51777 10.5 5.50459 10.5 5.4914C10.5 5.47822 10.5 5.46505 10.5 5.45188C10.5 5.43872 10.5 5.42556 10.5 5.41241C10.5 5.39926 10.5 5.38612 10.5 5.37298C10.5 5.35985 10.5 5.34672 10.5 5.3336C10.5 5.32048 10.5 5.30737 10.5 5.29426C10.5 5.28116 10.5 5.26806 10.5 5.25497C10.5 5.24188 10.5 5.2288 10.5 5.21573C10.5 5.20266 10.5 5.18959 10.5 5.17653C10.5 5.16348 10.5 5.15043 10.5 5.13739C10.5 5.12434 10.5 5.11131 10.5 5.09828C10.5 5.08526 10.5 5.07224 10.5 5.05923C10.5 5.04622 10.5 5.03322 10.5 5.02022C10.5 5.00723 10.5 4.99424 10.5 4.98127C10.5 4.96829 10.5 4.95532 10.5 4.94236C10.5 4.92939 10.5 4.91644 10.5 4.9035C10.5 4.89055 10.5 4.87761 10.5 4.86468C10.5 4.85175 10.5 4.83883 10.5 4.82592C10.5 4.813 10.5 4.8001 10.5 4.7872C10.5 4.7743 10.5 4.76142 10.5 4.74853C10.5 4.73565 10.5 4.72278 10.5 4.70992C10.5 4.69705 10.5 4.6842 10.5 4.67135C10.5 4.6585 10.5 4.64566 10.5 4.63283C10.5 4.62 10.5 4.60718 10.5 4.59436C10.5 4.58155 10.5 4.56874 10.5 4.55595C10.5 4.54315 10.5 4.53036 10.5 4.51758C10.5 4.5048 10.5 4.49202 10.5 4.47926C10.5 4.4665 10.5 4.45374 10.5 4.44099C10.5 4.42825 10.5 4.41551 10.5 4.40278C10.5 4.39005 10.5 4.37732 10.5 4.36461C10.5 4.3519 10.5 4.33919 10.5 4.3265C10.5 4.3138 10.5 4.30111 10.5 4.28843C10.5 4.27576 10.5 4.26309 10.5 4.25042C10.5 4.23776 10.5 4.22511 10.5 4.21246C10.5 4.19982 10.5 4.18718 10.5 4.17456C10.5 4.16193 10.5 4.14931 10.5 4.1367C10.5 4.12409 10.5 4.11149 10.5 4.0989C10.5 4.08631 10.5 4.07372 10.5 4.06115C10.5 4.04857 10.5 4.03601 10.5 4.02345C10.5 4.0109 10.5 3.99835 10.5 3.98581C10.5 3.97327 10.5 3.96074 10.5 3.94822C10.5 3.93569 10.5 3.92318 10.5 3.91068C10.5 3.89817 10.5 3.88568 10.5 3.87319C10.5 3.86071 10.5 3.84823 10.5 3.83576C10.5 3.8233 10.5 3.81084 10.5 3.79839C10.5 3.78594 10.5 3.7735 10.5 3.76106C10.5 3.74863 10.5 3.73621 10.5 3.7238C10.5 3.71138 10.5 3.69898 10.5 3.68658C10.5 3.67419 10.5 3.6618 10.5 3.64942C10.5 3.63705 10.5 3.62468 10.5 3.61232C10.5 3.59996 10.5 3.58761 10.5 3.57527C10.5 3.56293 10.5 3.5506 10.5 3.53828C10.5 3.52595 10.5 3.51364 10.5 3.50134C10.5 3.48903 10.5 3.47674 10.5 3.46445C10.5 3.45217 10.5 3.43989 10.5 3.42763C10.5 3.41536 10.5 3.4031 10.5 3.39086C10.5 3.37861 10.5 3.36637 10.5 3.35414C10.5 3.34191 10.5 3.32969 10.5 3.31748C10.5 3.30527 10.5 3.29307 10.5 3.28088C10.5 3.26869 10.5 3.25651 10.5 3.24434C10.5 3.23217 10.5 3.22 10.5 3.20785C10.5 3.1957 10.5 3.18355 10.5 3.17142C10.5 3.15929 10.5 3.14716 10.5 3.13505C10.5 3.12293 10.5 3.11083 10.5 3.09873C10.5 3.08664 10.5 3.07455 10.5 3.06247C10.5 3.0504 10.5 3.03833 10.5 3.02627C10.5 3.01422 10.5 3.00217 10.5 2.99013C10.5 2.9781 10.5 2.96607 10.5 2.95405C10.5 2.94203 10.5 2.93002 10.5 2.91802C10.5 2.90603 10.5 2.89404 10.5 2.88206C10.5 2.87008 10.5 2.85811 10.5 2.84615C10.5 2.83419 10.5 2.82224 10.5 2.8103C10.5 2.79837 10.5 2.78644 10.5 2.77452C10.5 2.7626 10.5 2.75069 10.5 2.73879C10.5 2.72689 10.5 2.715 10.5 2.70312C10.5 2.69124 10.5 2.67937 10.5 2.66751C10.5 2.65565 10.5 2.6438 10.5 2.63196C10.5 2.62012 10.5 2.60829 10.5 2.59647C10.5 2.58465 10.5 2.57284 10.5 2.56104C10.5 2.54924 10.5 2.53746 10.5 2.52568C10.5 2.5139 10.5 2.50213 10.5 2.49037C10.5 2.47861 10.5 2.46686 10.5 2.45512C10.5 2.44339 10.5 2.43166 10.5 2.41994C10.5 2.40822 10.5 2.39651 10.5 2.38482C10.5 2.37312 10.5 2.36143 10.5 2.34976C10.5 2.33808 10.5 2.32641 10.5 2.31476C10.5 2.3031 10.5 2.29146 10.5 2.27982C10.5 2.26818 10.5 2.25656 10.5 2.24495C10.5 2.23333 10.5 2.22173 10.5 2.21013C10.5 2.19854 10.5 2.18696 10.5 2.17538C10.5 2.16381 10.5 2.15225 10.5 2.1407C10.5 2.12914 10.5 2.1176 10.5 2.10607C10.5 2.09454 10.5 2.08302 10.5 2.07151C10.5 2.06 10.5 2.0485 10.5 2.03701C10.5 2.02553 10.5 2.01405 10.5 2.00258C10.5 1.99111 10.5 1.97966 10.5 1.96821C10.5 1.95676 10.5 1.94533 10.5 1.9339C10.5 1.92248 10.5 1.91107 10.5 1.89966C10.5 1.88826 10.5 1.87687 10.5 1.86549C10.5 1.8541 10.5 1.84273 10.5 1.83137C10.5 1.82001 10.5 1.80866 10.5 1.79733C10.5 1.78599 10.5 1.77466 10.5 1.76334C10.5 1.75203 10.5 1.74072 10.5 1.72942C10.5 1.71813 10.5 1.70685 10.5 1.69557C10.5 1.6843 10.5 1.67304 10.5 1.66179C10.5 1.65053 10.5 1.63929 10.5 1.62806C10.5 1.61683 10.5 1.60562 10.5 1.59441C10.5 1.5832 10.5 1.57201 10.5 1.56082C10.5 1.54963 10.5 1.53846 10.5 1.5273C10.5 1.51613 10.5 1.50498 10.5 1.49384C10.5 1.4827 10.5 1.47157 10.5 1.46045C10.5 1.44933 10.5 1.43822 10.5 1.42713C10.5 1.41603 10.5 1.40495 10.5 1.39387C10.5 1.3828 10.5 1.37174 10.5 1.36068C10.5 1.34963 10.5 1.33859 10.5 1.32756C10.5 1.31654 10.5 1.30552 10.5 1.29451C10.5 1.2835 10.5 1.27251 10.5 1.26153C10.5 1.25054 10.5 1.23957 10.5 1.22861C10.5 1.21765 10.5 1.2067 10.5 1.19576C10.5 1.18482 10.5 1.17389 10.5 1.16298C10.5 1.15206 10.5 1.14116 10.5 1.13027C10.5 1.11938 10.5 1.10849 10.5 1.09762C10.5 1.08676 10.5 1.0759 10.5 1.06505C10.5 1.0542 10.5 1.04337 10.5 1.03255C10.5 1.02172 10.5 1.01091 10.5 1.00011C10.5 0.989311 10.5 0.978522 10.5 0.967745C10.5 0.956969 10.5 0.946203 10.5 0.93545C10.5 0.924696 10.5 0.913954 10.5 0.903224C10.5 0.892494 10.5 0.881775 10.5 0.871068C10.5 0.860361 10.5 0.849666 10.5 0.838983C10.5 0.8283 10.5 0.817628 10.5 0.806969C10.5 0.796309 10.5 0.785661 10.5 0.775025C10.5 0.764389 10.5 0.753764 10.5 0.743152C10.5 0.732539 10.5 0.721939 10.5 0.71135C10.5 0.700762 10.5 0.690185 10.5 0.67962C10.5 0.669055 10.5 0.658502 10.5 0.647961C10.5 0.63742 10.5 0.626891 10.5 0.616374C10.5 0.605857 10.5 0.595352 10.5 0.584859C10.5 0.574366 10.5 0.563885 10.5 0.553416C10.5 0.542947 10.5 0.53249 10.5 0.522046C10.5 0.511601 10.5 0.501168 10.5 0.490748C10.5 0.480327 10.5 0.469918 10.5 0.459522C10.5 0.449126 10.5 0.438742 10.5 0.42837C10.5 0.417998 10.5 0.407638 10.5 0.39729C10.5 0.386943 10.5 0.376608 10.5 0.366284C10.5 0.355961 10.5 0.34565 10.5 0.335352C10.5 0.325053 10.5 0.314767 10.5 0.304493C10.5 0.294219 10.5 0.283957 10.5 0.273708C10.5 0.263459 10.5 0.253222 10.5 0.242997C10.5 0.232773 10.5 0.22256 10.5 0.212361C10.5 0.202161 10.5 0.191973 10.5 0.181798C10.5 0.171624 10.5 0.161461 10.5 0.151311C10.5 0.141161 10.5 0.131023 10.5 0.120898C10.5 0.110773 10.5 0.100661 10.5 0.0905608C10.5 0.0804608 10.5 0.0703733 10.5 0.0602985C10.5 0.0502236 10.5 0.0401613 10.5 0.0301115C10.5 0.0200618 10.5 0.0100247 10.5 2.62268e-07L7.5 -2.62268e-07C7.5 0.0100242 7.5 0.0200613 7.5 0.030111C7.5 0.0401607 7.5 0.050223 7.5 0.0602979C7.5 0.0703728 7.5 0.0804603 7.5 0.0905603C7.5 0.10066 7.5 0.110773 7.5 0.120898C7.5 0.131023 7.5 0.14116 7.5 0.15131C7.5 0.161461 7.5 0.171623 7.5 0.181798C7.5 0.191973 7.5 0.20216 7.5 0.21236C7.5 0.22256 7.5 0.232772 7.5 0.242997C7.5 0.253221 7.5 0.263458 7.5 0.273708C7.5 0.283957 7.5 0.294219 7.5 0.304493C7.5 0.314767 7.5 0.325053 7.5 0.335351C7.5 0.34565 7.5 0.355961 7.5 0.366284C7.5 0.376607 7.5 0.386942 7.5 0.39729C7.5 0.407637 7.5 0.417997 7.5 0.428369C7.5 0.438741 7.5 0.449125 7.5 0.459522C7.5 0.469918 7.5 0.480326 7.5 0.490747C7.5 0.501168 7.5 0.5116 7.5 0.522045C7.5 0.53249 7.5 0.542947 7.5 0.553416C7.5 0.563885 7.5 0.574366 7.5 0.584859C7.5 0.595352 7.5 0.605857 7.5 0.616374C7.5 0.626891 7.5 0.63742 7.5 0.647961C7.5 0.658502 7.5 0.669054 7.5 0.679619C7.5 0.690184 7.5 0.700761 7.5 0.71135C7.5 0.721938 7.5 0.732539 7.5 0.743151C7.5 0.753764 7.5 0.764388 7.5 0.775024C7.5 0.78566 7.5 0.796308 7.5 0.806968C7.5 0.817628 7.5 0.828299 7.5 0.838983C7.5 0.849666 7.5 0.860361 7.5 0.871068C7.5 0.881775 7.5 0.892493 7.5 0.903223C7.5 0.913954 7.5 0.924696 7.5 0.935449C7.5 0.946203 7.5 0.956968 7.5 0.967745C7.5 0.978522 7.5 0.98931 7.5 1.00011C7.5 1.01091 7.5 1.02172 7.5 1.03255C7.5 1.04337 7.5 1.0542 7.5 1.06505C7.5 1.0759 7.5 1.08675 7.5 1.09762C7.5 1.10849 7.5 1.11937 7.5 1.13027C7.5 1.14116 7.5 1.15206 7.5 1.16298C7.5 1.17389 7.5 1.18482 7.5 1.19576C7.5 1.2067 7.5 1.21765 7.5 1.22861C7.5 1.23957 7.5 1.25054 7.5 1.26153C7.5 1.27251 7.5 1.2835 7.5 1.29451C7.5 1.30552 7.5 1.31653 7.5 1.32756C7.5 1.33859 7.5 1.34963 7.5 1.36068C7.5 1.37174 7.5 1.3828 7.5 1.39387C7.5 1.40495 7.5 1.41603 7.5 1.42713C7.5 1.43822 7.5 1.44933 7.5 1.46045C7.5 1.47157 7.5 1.4827 7.5 1.49384C7.5 1.50498 7.5 1.51613 7.5 1.5273C7.5 1.53846 7.5 1.54963 7.5 1.56082C7.5 1.572 7.5 1.5832 7.5 1.59441C7.5 1.60562 7.5 1.61683 7.5 1.62806C7.5 1.63929 7.5 1.65053 7.5 1.66178C7.5 1.67304 7.5 1.6843 7.5 1.69557C7.5 1.70684 7.5 1.71813 7.5 1.72942C7.5 1.74072 7.5 1.75202 7.5 1.76334C7.5 1.77466 7.5 1.78599 7.5 1.79732C7.5 1.80866 7.5 1.82001 7.5 1.83137C7.5 1.84273 7.5 1.8541 7.5 1.86549C7.5 1.87687 7.5 1.88826 7.5 1.89966C7.5 1.91107 7.5 1.92248 7.5 1.9339C7.5 1.94533 7.5 1.95676 7.5 1.96821C7.5 1.97966 7.5 1.99111 7.5 2.00258C7.5 2.01405 7.5 2.02553 7.5 2.03701C7.5 2.0485 7.5 2.06 7.5 2.07151C7.5 2.08302 7.5 2.09454 7.5 2.10607C7.5 2.1176 7.5 2.12914 7.5 2.1407C7.5 2.15225 7.5 2.16381 7.5 2.17538C7.5 2.18696 7.5 2.19854 7.5 2.21013C7.5 2.22173 7.5 2.23333 7.5 2.24494C7.5 2.25656 7.5 2.26818 7.5 2.27982C7.5 2.29145 7.5 2.3031 7.5 2.31476C7.5 2.32641 7.5 2.33808 7.5 2.34976C7.5 2.36143 7.5 2.37312 7.5 2.38482C7.5 2.39651 7.5 2.40822 7.5 2.41994C7.5 2.43166 7.5 2.44339 7.5 2.45512C7.5 2.46686 7.5 2.47861 7.5 2.49037C7.5 2.50213 7.5 2.5139 7.5 2.52568C7.5 2.53745 7.5 2.54924 7.5 2.56104C7.5 2.57284 7.5 2.58465 7.5 2.59647C7.5 2.60829 7.5 2.62012 7.5 2.63196C7.5 2.6438 7.5 2.65565 7.5 2.66751C7.5 2.67937 7.5 2.69124 7.5 2.70312C7.5 2.715 7.5 2.72689 7.5 2.73879C7.5 2.75069 7.5 2.7626 7.5 2.77452C7.5 2.78644 7.5 2.79836 7.5 2.8103C7.5 2.82224 7.5 2.83419 7.5 2.84615C7.5 2.85811 7.5 2.87008 7.5 2.88206C7.5 2.89404 7.5 2.90603 7.5 2.91802C7.5 2.93002 7.5 2.94203 7.5 2.95405C7.5 2.96607 7.5 2.97809 7.5 2.99013C7.5 3.00217 7.5 3.01422 7.5 3.02627C7.5 3.03833 7.5 3.0504 7.5 3.06247C7.5 3.07455 7.5 3.08664 7.5 3.09873C7.5 3.11083 7.5 3.12293 7.5 3.13505C7.5 3.14716 7.5 3.15929 7.5 3.17142C7.5 3.18355 7.5 3.1957 7.5 3.20785C7.5 3.22 7.5 3.23217 7.5 3.24434C7.5 3.25651 7.5 3.26869 7.5 3.28088C7.5 3.29307 7.5 3.30527 7.5 3.31748C7.5 3.32969 7.5 3.34191 7.5 3.35414C7.5 3.36637 7.5 3.37861 7.5 3.39086C7.5 3.4031 7.5 3.41536 7.5 3.42763C7.5 3.43989 7.5 3.45217 7.5 3.46445C7.5 3.47674 7.5 3.48903 7.5 3.50134C7.5 3.51364 7.5 3.52595 7.5 3.53827C7.5 3.5506 7.5 3.56293 7.5 3.57527C7.5 3.58761 7.5 3.59996 7.5 3.61232C7.5 3.62468 7.5 3.63705 7.5 3.64942C7.5 3.6618 7.5 3.67419 7.5 3.68658C7.5 3.69898 7.5 3.71138 7.5 3.7238C7.5 3.73621 7.5 3.74863 7.5 3.76106C7.5 3.7735 7.5 3.78594 7.5 3.79839C7.5 3.81084 7.5 3.8233 7.5 3.83576C7.5 3.84823 7.5 3.86071 7.5 3.87319C7.5 3.88568 7.5 3.89817 7.5 3.91068C7.5 3.92318 7.5 3.93569 7.5 3.94822C7.5 3.96074 7.5 3.97327 7.5 3.98581C7.5 3.99835 7.5 4.01089 7.5 4.02345C7.5 4.03601 7.5 4.04857 7.5 4.06115C7.5 4.07372 7.5 4.08631 7.5 4.0989C7.5 4.11149 7.5 4.12409 7.5 4.1367C7.5 4.14931 7.5 4.16193 7.5 4.17456C7.5 4.18718 7.5 4.19982 7.5 4.21246C7.5 4.22511 7.5 4.23776 7.5 4.25042C7.5 4.26308 7.5 4.27576 7.5 4.28843C7.5 4.30111 7.5 4.3138 7.5 4.3265C7.5 4.33919 7.5 4.3519 7.5 4.36461C7.5 4.37732 7.5 4.39005 7.5 4.40278C7.5 4.41551 7.5 4.42824 7.5 4.44099C7.5 4.45374 7.5 4.46649 7.5 4.47926C7.5 4.49202 7.5 4.5048 7.5 4.51758C7.5 4.53036 7.5 4.54315 7.5 4.55594C7.5 4.56874 7.5 4.58155 7.5 4.59436C7.5 4.60718 7.5 4.62 7.5 4.63283C7.5 4.64566 7.5 4.6585 7.5 4.67135C7.5 4.6842 7.5 4.69705 7.5 4.70992C7.5 4.72278 7.5 4.73565 7.5 4.74853C7.5 4.76142 7.5 4.7743 7.5 4.7872C7.5 4.8001 7.5 4.813 7.5 4.82592C7.5 4.83883 7.5 4.85175 7.5 4.86468C7.5 4.87761 7.5 4.89055 7.5 4.90349C7.5 4.91644 7.5 4.92939 7.5 4.94236C7.5 4.95532 7.5 4.96829 7.5 4.98127C7.5 4.99424 7.5 5.00723 7.5 5.02022C7.5 5.03322 7.5 5.04622 7.5 5.05923C7.5 5.07224 7.5 5.08526 7.5 5.09828C7.5 5.11131 7.5 5.12434 7.5 5.13739C7.5 5.15043 7.5 5.16348 7.5 5.17653C7.5 5.18959 7.5 5.20266 7.5 5.21573C7.5 5.2288 7.5 5.24188 7.5 5.25497C7.5 5.26806 7.5 5.28116 7.5 5.29426C7.5 5.30737 7.5 5.32048 7.5 5.3336C7.5 5.34672 7.5 5.35984 7.5 5.37298C7.5 5.38612 7.5 5.39926 7.5 5.41241C7.5 5.42556 7.5 5.43872 7.5 5.45188C7.5 5.46505 7.5 5.47822 7.5 5.4914C7.5 5.50458 7.5 5.51777 7.5 5.53097C7.5 5.54417 7.5 5.55737 7.5 5.57058C7.5 5.58379 7.5 5.59701 7.5 5.61024C7.5 5.62346 7.5 5.6367 7.5 5.64994C7.5 5.66318 7.5 5.67643 7.5 5.68968C7.5 5.70294 7.5 5.7162 7.5 5.72948C7.5 5.74275 7.5 5.75602 7.5 5.76931C7.5 5.7826 7.5 5.79589 7.5 5.80919C7.5 5.82249 7.5 5.8358 7.5 5.84911C7.5 5.86243 7.5 5.87575 7.5 5.88908C7.5 5.90241 7.5 5.91575 7.5 5.92909C7.5 5.94244 7.5 5.95579 7.5 5.96915C7.5 5.98251 7.5 5.99587 7.5 6.00924C7.5 6.02262 7.5 6.036 7.5 6.04938C7.5 6.06277 7.5 6.07617 7.5 6.08957C7.5 6.10297 7.5 6.11638 7.5 6.12979C7.5 6.14321 7.5 6.15663 7.5 6.17006C7.5 6.18349 7.5 6.19693 7.5 6.21038C7.5 6.22382 7.5 6.23727 7.5 6.25073C7.5 6.26419 7.5 6.27765 7.5 6.29112C7.5 6.3046 7.5 6.31807 7.5 6.33156C7.5 6.34505 7.5 6.35854 7.5 6.37204C7.5 6.38554 7.5 6.39904 7.5 6.41256C7.5 6.42607 7.5 6.43959 7.5 6.45312C7.5 6.46665 7.5 6.48018 7.5 6.49372C7.5 6.50726 7.5 6.52081 7.5 6.53436C7.5 6.54792 7.5 6.56148 7.5 6.57505C7.5 6.58861 7.5 6.60219 7.5 6.61577C7.5 6.62935 7.5 6.64294 7.5 6.65653C7.5 6.67013 7.5 6.68373 7.5 6.69734C7.5 6.71094 7.5 6.72456 7.5 6.73818C7.5 6.7518 7.5 6.76543 7.5 6.77906C7.5 6.7927 7.5 6.80634 7.5 6.81998C7.5 6.83363 7.5 6.84729 7.5 6.86095C7.5 6.87461 7.5 6.88827 7.5 6.90195C7.5 6.91562 7.5 6.9293 7.5 6.94299C7.5 6.95667 7.5 6.97036 7.5 6.98406C7.5 6.99776 7.5 7.01147 7.5 7.02518C7.5 7.03889 7.5 7.05261 7.5 7.06633C7.5 7.08006 7.5 7.09379 7.5 7.10753C7.5 7.12126 7.5 7.13501 7.5 7.14876C7.5 7.16251 7.5 7.17626 7.5 7.19003C7.5 7.20379 7.5 7.21756 7.5 7.23133C7.5 7.24511 7.5 7.25889 7.5 7.27267C7.5 7.28646 7.5 7.30025 7.5 7.31405C7.5 7.32785 7.5 7.34166 7.5 7.35547C7.5 7.36928 7.5 7.3831 7.5 7.39692C7.5 7.41075 7.5 7.42458 7.5 7.43841C7.5 7.45225 7.5 7.46609 7.5 7.47994C7.5 7.49379 7.5 7.50764 7.5 7.5215C7.5 7.53536 7.5 7.54923 7.5 7.5631C7.5 7.57697 7.5 7.59085 7.5 7.60473C7.5 7.61862 7.5 7.63251 7.5 7.6464C7.5 7.6603 7.5 7.6742 7.5 7.68811C7.5 7.70201 7.5 7.71593 7.5 7.72985C7.5 7.74376 7.5 7.75769 7.5 7.77162C7.5 7.78555 7.5 7.79949 7.5 7.81343C7.5 7.82737 7.5 7.84132 7.5 7.85527C7.5 7.86923 7.5 7.88319 7.5 7.89715C7.5 7.91112 7.5 7.92509 7.5 7.93906C7.5 7.95304 7.5 7.96702 7.5 7.98101C7.5 7.995 7.5 8.00899 7.5 8.02299C7.5 8.03699 7.5 8.05099 7.5 8.065C7.5 8.07901 7.5 8.09303 7.5 8.10705C7.5 8.12107 7.5 8.1351 7.5 8.14913C7.5 8.16316 7.5 8.1772 7.5 8.19124C7.5 8.20529 7.5 8.21934 7.5 8.23339C7.5 8.24744 7.5 8.2615 7.5 8.27557C7.5 8.28963 7.5 8.3037 7.5 8.31778C7.5 8.33185 7.5 8.34594 7.5 8.36002C7.5 8.37411 7.5 8.3882 7.5 8.4023C7.5 8.41639 7.5 8.4305 7.5 8.4446C7.5 8.45871 7.5 8.47282 7.5 8.48694C7.5 8.50106 7.5 8.51518 7.5 8.52931C7.5 8.54344 7.5 8.55757 7.5 8.57171C7.5 8.58585 7.5 8.6 7.5 8.61415C7.5 8.6283 7.5 8.64245 7.5 8.65661C7.5 8.67077 7.5 8.68493 7.5 8.6991C7.5 8.71327 7.5 8.72745 7.5 8.74163C7.5 8.75581 7.5 8.76999 7.5 8.78418C7.5 8.79837 7.5 8.81257 7.5 8.82677C7.5 8.84097 7.5 8.85517 7.5 8.86938C7.5 8.88359 7.5 8.89781 7.5 8.91203C7.5 8.92624 7.5 8.94047 7.5 8.9547C7.5 8.96893 7.5 8.98316 7.5 8.9974C7.5 9.01164 7.5 9.02589 7.5 9.04013C7.5 9.05438 7.5 9.06864 7.5 9.0829C7.5 9.09715 7.5 9.11142 7.5 9.12569C7.5 9.13995 7.5 9.15423 7.5 9.1685C7.5 9.18278 7.5 9.19706 7.5 9.21135C7.5 9.22564 7.5 9.23993 7.5 9.25422C7.5 9.26852 7.5 9.28282 7.5 9.29713C7.5 9.31143 7.5 9.32574 7.5 9.34006C7.5 9.35437 7.5 9.36869 7.5 9.38302C7.5 9.39734 7.5 9.41167 7.5 9.426C7.5 9.44033 7.5 9.45467 7.5 9.46901C7.5 9.48336 7.5 9.4977 7.5 9.51205C7.5 9.52641 7.5 9.54076 7.5 9.55512C7.5 9.56948 7.5 9.58384 7.5 9.59821C7.5 9.61258 7.5 9.62695 7.5 9.64133C7.5 9.65571 7.5 9.67009 7.5 9.68448C7.5 9.69886 7.5 9.71325 7.5 9.72765C7.5 9.74204 7.5 9.75644 7.5 9.77085C7.5 9.78525 7.5 9.79966 7.5 9.81407C7.5 9.82848 7.5 9.8429 7.5 9.85732C7.5 9.87174 7.5 9.88616 7.5 9.90059C7.5 9.91502 7.5 9.92945 7.5 9.94389C7.5 9.95833 7.5 9.97277 7.5 9.98721C7.5 10.0017 7.5 10.0161 7.5 10.0306C7.5 10.045 7.5 10.0595 7.5 10.0739C7.5 10.0884 7.5 10.1029 7.5 10.1173C7.5 10.1318 7.5 10.1463 7.5 10.1608C7.5 10.1752 7.5 10.1897 7.5 10.2042C7.5 10.2187 7.5 10.2332 7.5 10.2477C7.5 10.2622 7.5 10.2767 7.5 10.2912C7.5 10.3057 7.5 10.3202 7.5 10.3347C7.5 10.3492 7.5 10.3637 7.5 10.3782C7.5 10.3927 7.5 10.4072 7.5 10.4218C7.5 10.4363 7.5 10.4508 7.5 10.4654C7.5 10.4799 7.5 10.4944 7.5 10.509C7.5 10.5235 7.5 10.538 7.5 10.5526C7.5 10.5671 7.5 10.5817 7.5 10.5962C7.5 10.6108 7.5 10.6254 7.5 10.6399C7.5 10.6545 7.5 10.669 7.5 10.6836C7.5 10.6982 7.5 10.7128 7.5 10.7273C7.5 10.7419 7.5 10.7565 7.5 10.7711C7.5 10.7856 7.5 10.8002 7.5 10.8148C7.5 10.8294 7.5 10.844 7.5 10.8586C7.5 10.8732 7.5 10.8878 7.5 10.9024C7.5 10.917 7.5 10.9316 7.5 10.9462C7.5 10.9608 7.5 10.9755 7.5 10.9901C7.5 11.0047 7.5 11.0193 7.5 11.0339C7.5 11.0486 7.5 11.0632 7.5 11.0778C7.5 11.0924 7.5 11.1071 7.5 11.1217C7.5 11.1363 7.5 11.151 7.5 11.1656C7.5 11.1803 7.5 11.1949 7.5 11.2096C7.5 11.2242 7.5 11.2389 7.5 11.2535C7.5 11.2682 7.5 11.2829 7.5 11.2975C7.5 11.3122 7.5 11.3268 7.5 11.3415C7.5 11.3562 7.5 11.3709 7.5 11.3855C7.5 11.4002 7.5 11.4149 7.5 11.4296C7.5 11.4442 7.5 11.4589 7.5 11.4736C7.5 11.4883 7.5 11.503 7.5 11.5177C7.5 11.5324 7.5 11.5471 7.5 11.5618C7.5 11.5765 7.5 11.5912 7.5 11.6059C7.5 11.6206 7.5 11.6353 7.5 11.65C7.5 11.6647 7.5 11.6794 7.5 11.6941C7.5 11.7089 7.5 11.7236 7.5 11.7383C7.5 11.753 7.5 11.7678 7.5 11.7825C7.5 11.7972 7.5 11.8119 7.5 11.8267C7.5 11.8414 7.5 11.8561 7.5 11.8709C7.5 11.8856 7.5 11.9004 7.5 11.9151C7.5 11.9299 7.5 11.9446 7.5 11.9593C7.5 11.9741 7.5 11.9888 7.5 12.0036C7.5 12.0184 7.5 12.0331 7.5 12.0479C7.5 12.0626 7.5 12.0774 7.5 12.0922C7.5 12.1069 7.5 12.1217 7.5 12.1365C7.5 12.1512 7.5 12.166 7.5 12.1808C7.5 12.1956 7.5 12.2103 7.5 12.2251C7.5 12.2399 7.5 12.2547 7.5 12.2695C7.5 12.2843 7.5 12.299 7.5 12.3138C7.5 12.3286 7.5 12.3434 7.5 12.3582C7.5 12.373 7.5 12.3878 7.5 12.4026C7.5 12.4174 7.5 12.4322 7.5 12.447C7.5 12.4618 7.5 12.4766 7.5 12.4914C7.5 12.5062 7.5 12.521 7.5 12.5359C7.5 12.5507 7.5 12.5655 7.5 12.5803C7.5 12.5951 7.5 12.6099 7.5 12.6248C7.5 12.6396 7.5 12.6544 7.5 12.6692C7.5 12.6841 7.5 12.6989 7.5 12.7137C7.5 12.7286 7.5 12.7434 7.5 12.7582C7.5 12.7731 7.5 12.7879 7.5 12.8027C7.5 12.8176 7.5 12.8324 7.5 12.8473C7.5 12.8621 7.5 12.8769 7.5 12.8918C7.5 12.9066 7.5 12.9215 7.5 12.9363C7.5 12.9512 7.5 12.966 7.5 12.9809C7.5 12.9957 7.5 13.0106 7.5 13.0255C7.5 13.0403 7.5 13.0552 7.5 13.07C7.5 13.0849 7.5 13.0998 7.5 13.1146C7.5 13.1295 7.5 13.1444 7.5 13.1592C7.5 13.1741 7.5 13.189 7.5 13.2039C7.5 13.2187 7.5 13.2336 7.5 13.2485C7.5 13.2634 7.5 13.2782 7.5 13.2931C7.5 13.308 7.5 13.3229 7.5 13.3378C7.5 13.3526 7.5 13.3675 7.5 13.3824C7.5 13.3973 7.5 13.4122 7.5 13.4271C7.5 13.442 7.5 13.4569 7.5 13.4718C7.5 13.4866 7.5 13.5015 7.5 13.5164C7.5 13.5313 7.5 13.5462 7.5 13.5611C7.5 13.576 7.5 13.5909 7.5 13.6058C7.5 13.6207 7.5 13.6356 7.5 13.6505C7.5 13.6654 7.5 13.6804 7.5 13.6953C7.5 13.7102 7.5 13.7251 7.5 13.74C7.5 13.7549 7.5 13.7698 7.5 13.7847C7.5 13.7996 7.5 13.8145 7.5 13.8295C7.5 13.8444 7.5 13.8593 7.5 13.8742C7.5 13.8891 7.5 13.9041 7.5 13.919C7.5 13.9339 7.5 13.9488 7.5 13.9637C7.5 13.9787 7.5 13.9936 7.5 14.0085C7.5 14.0234 7.5 14.0384 7.5 14.0533C7.5 14.0682 7.5 14.0831 7.5 14.0981C7.5 14.113 7.5 14.1279 7.5 14.1429C7.5 14.1578 7.5 14.1727 7.5 14.1877C7.5 14.2026 7.5 14.2175 7.5 14.2325C7.5 14.2474 7.5 14.2624 7.5 14.2773C7.5 14.2922 7.5 14.3072 7.5 14.3221C7.5 14.3371 7.5 14.352 7.5 14.3669C7.5 14.3819 7.5 14.3968 7.5 14.4118C7.5 14.4267 7.5 14.4417 7.5 14.4566C7.5 14.4715 7.5 14.4865 7.5 14.5014C7.5 14.5164 7.5 14.5313 7.5 14.5463C7.5 14.5612 7.5 14.5762 7.5 14.5911C7.5 14.6061 7.5 14.621 7.5 14.636C7.5 14.6509 7.5 14.6659 7.5 14.6808C7.5 14.6958 7.5 14.7108 7.5 14.7257C7.5 14.7407 7.5 14.7556 7.5 14.7706C7.5 14.7855 7.5 14.8005 7.5 14.8154C7.5 14.8304 7.5 14.8454 7.5 14.8603C7.5 14.8753 7.5 14.8902 7.5 14.9052C7.5 14.9202 7.5 14.9351 7.5 14.9501C7.5 14.965 7.5 14.98 7.5 14.995C7.5 15.0099 7.5 15.0249 7.5 15.0398C7.5 15.0548 7.5 15.0698 7.5 15.0847C7.5 15.0997 7.5 15.1147 7.5 15.1296C7.5 15.1446 7.5 15.1595 7.5 15.1745C7.5 15.1895 7.5 15.2044 7.5 15.2194C7.5 15.2344 7.5 15.2493 7.5 15.2643C7.5 15.2793 7.5 15.2942 7.5 15.3092C7.5 15.3242 7.5 15.3391 7.5 15.3541C7.5 15.3691 7.5 15.384 7.5 15.399C7.5 15.414 7.5 15.4289 7.5 15.4439C7.5 15.4589 7.5 15.4738 7.5 15.4888C7.5 15.5038 7.5 15.5187 7.5 15.5337C7.5 15.5487 7.5 15.5636 7.5 15.5786C7.5 15.5936 7.5 15.6085 7.5 15.6235C7.5 15.6385 7.5 15.6534 7.5 15.6684C7.5 15.6834 7.5 15.6984 7.5 15.7133C7.5 15.7283 7.5 15.7433 7.5 15.7582C7.5 15.7732 7.5 15.7882 7.5 15.8031C7.5 15.8181 7.5 15.8331 7.5 15.848C7.5 15.863 7.5 15.878 7.5 15.8929C7.5 15.9079 7.5 15.9229 7.5 15.9378C7.5 15.9528 7.5 15.9678 7.5 15.9827C7.5 15.9977 7.5 16.0127 7.5 16.0276C7.5 16.0426 7.5 16.0576 7.5 16.0725C7.5 16.0875 7.5 16.1024 7.5 16.1174C7.5 16.1324 7.5 16.1473 7.5 16.1623C7.5 16.1773 7.5 16.1922 7.5 16.2072C7.5 16.2222 7.5 16.2371 7.5 16.2521C7.5 16.267 7.5 16.282 7.5 16.297C7.5 16.3119 7.5 16.3269 7.5 16.3418C7.5 16.3568 7.5 16.3718 7.5 16.3867C7.5 16.4017 7.5 16.4166 7.5 16.4316C7.5 16.4466 7.5 16.4615 7.5 16.4765C7.5 16.4914 7.5 16.5064 7.5 16.5213C7.5 16.5363 7.5 16.5512 7.5 16.5662C7.5 16.5812 7.5 16.5961 7.5 16.6111C7.5 16.626 7.5 16.641 7.5 16.6559C7.5 16.6709 7.5 16.6858 7.5 16.7008C7.5 16.7157 7.5 16.7307 7.5 16.7456C7.5 16.7606 7.5 16.7755 7.5 16.7905C7.5 16.8054 7.5 16.8203 7.5 16.8353C7.5 16.8502 7.5 16.8652 7.5 16.8801C7.5 16.8951 7.5 16.91 7.5 16.9249C7.5 16.9399 7.5 16.9548 7.5 16.9698C7.5 16.9847 7.5 16.9996 7.5 17.0146C7.5 17.0295 7.5 17.0445 7.5 17.0594C7.5 17.0743 7.5 17.0893 7.5 17.1042C7.5 17.1191 7.5 17.1341 7.5 17.149C7.5 17.1639 7.5 17.1789 7.5 17.1938C7.5 17.2087 7.5 17.2236 7.5 17.2386C7.5 17.2535 7.5 17.2684 7.5 17.2833C7.5 17.2983 7.5 17.3132 7.5 17.3281C7.5 17.343 7.5 17.358 7.5 17.3729C7.5 17.3878 7.5 17.4027 7.5 17.4176C7.5 17.4325 7.5 17.4475 7.5 17.4624C7.5 17.4773 7.5 17.4922 7.5 17.5071C7.5 17.522 7.5 17.5369 7.5 17.5518C7.5 17.5667 7.5 17.5817 7.5 17.5966C7.5 17.6115 7.5 17.6264 7.5 17.6413C7.5 17.6562 7.5 17.6711 7.5 17.686C7.5 17.7009 7.5 17.7158 7.5 17.7307C7.5 17.7456 7.5 17.7605 7.5 17.7754C7.5 17.7903 7.5 17.8051 7.5 17.82C7.5 17.8349 7.5 17.8498 7.5 17.8647C7.5 17.8796 7.5 17.8945 7.5 17.9094C7.5 17.9243 7.5 17.9391 7.5 17.954C7.5 17.9689 7.5 17.9838 7.5 17.9987C7.5 18.0135 7.5 18.0284 7.5 18.0433C7.5 18.0582 7.5 18.073 7.5 18.0879C7.5 18.1028 7.5 18.1176 7.5 18.1325C7.5 18.1474 7.5 18.1622 7.5 18.1771C7.5 18.192 7.5 18.2068 7.5 18.2217C7.5 18.2365 7.5 18.2514 7.5 18.2663C7.5 18.2811 7.5 18.296 7.5 18.3108C7.5 18.3257 7.5 18.3405 7.5 18.3554C7.5 18.3702 7.5 18.3851 7.5 18.3999C7.5 18.4148 7.5 18.4296 7.5 18.4444C7.5 18.4593 7.5 18.4741 7.5 18.489C7.5 18.5038 7.5 18.5186 7.5 18.5335C7.5 18.5483 7.5 18.5631 7.5 18.578C7.5 18.5928 7.5 18.6076 7.5 18.6224C7.5 18.6373 7.5 18.6521 7.5 18.6669C7.5 18.6817 7.5 18.6965 7.5 18.7113C7.5 18.7262 7.5 18.741 7.5 18.7558C7.5 18.7706 7.5 18.7854 7.5 18.8002C7.5 18.815 7.5 18.8298 7.5 18.8446C7.5 18.8594 7.5 18.8742 7.5 18.889C7.5 18.9038 7.5 18.9186 7.5 18.9334C7.5 18.9482 7.5 18.963 7.5 18.9778C7.5 18.9926 7.5 19.0073 7.5 19.0221C7.5 19.0369 7.5 19.0517 7.5 19.0665C7.5 19.0812 7.5 19.096 7.5 19.1108C7.5 19.1256 7.5 19.1403 7.5 19.1551C7.5 19.1699 7.5 19.1846 7.5 19.1994C7.5 19.2142 7.5 19.2289 7.5 19.2437C7.5 19.2584 7.5 19.2732 7.5 19.2879C7.5 19.3027 7.5 19.3174 7.5 19.3322C7.5 19.3469 7.5 19.3617 7.5 19.3764C7.5 19.3912 7.5 19.4059 7.5 19.4206C7.5 19.4354 7.5 19.4501 7.5 19.4648C7.5 19.4796 7.5 19.4943 7.5 19.509C7.5 19.5237 7.5 19.5385 7.5 19.5532C7.5 19.5679 7.5 19.5826 7.5 19.5973C7.5 19.612 7.5 19.6267 7.5 19.6415C7.5 19.6562 7.5 19.6709 7.5 19.6856C7.5 19.7003 7.5 19.715 7.5 19.7297C7.5 19.7444 7.5 19.759 7.5 19.7737C7.5 19.7884 7.5 19.8031 7.5 19.8178C7.5 19.8325 7.5 19.8472 7.5 19.8618C7.5 19.8765 7.5 19.8912 7.5 19.9059C7.5 19.9205 7.5 19.9352 7.5 19.9499C7.5 19.9645 7.5 19.9792 7.5 19.9939C7.5 20.0085 7.5 20.0232 7.5 20.0378C7.5 20.0525 7.5 20.0671 7.5 20.0818C7.5 20.0964 7.5 20.1111 7.5 20.1257C7.5 20.1403 7.5 20.155 7.5 20.1696C7.5 20.1842 7.5 20.1989 7.5 20.2135C7.5 20.2281 7.5 20.2427 7.5 20.2574C7.5 20.272 7.5 20.2866 7.5 20.3012C7.5 20.3158 7.5 20.3304 7.5 20.345C7.5 20.3596 7.5 20.3743 7.5 20.3889C7.5 20.4035 7.5 20.418 7.5 20.4326C7.5 20.4472 7.5 20.4618 7.5 20.4764C7.5 20.491 7.5 20.5056 7.5 20.5202C7.5 20.5347 7.5 20.5493 7.5 20.5639C7.5 20.5784 7.5 20.593 7.5 20.6076C7.5 20.6221 7.5 20.6367 7.5 20.6513C7.5 20.6658 7.5 20.6804 7.5 20.6949C7.5 20.7095 7.5 20.724 7.5 20.7386C7.5 20.7531 7.5 20.7676 7.5 20.7822C7.5 20.7967 7.5 20.8112 7.5 20.8258C7.5 20.8403 7.5 20.8548 7.5 20.8693C7.5 20.8839 7.5 20.8984 7.5 20.9129C7.5 20.9274 7.5 20.9419 7.5 20.9564C7.5 20.9709 7.5 20.9854 7.5 20.9999L10.5 20.9999Z" fill="#362A2A"/>
</svg>
