<svg width="18" height="35" viewBox="0 0 18 35" fill="none" xmlns="http://www.w3.org/2000/svg">
<path d="M9 0L0.339744 15L17.6603 15L9 0ZM7.5 13.5001C7.5 13.5146 7.5 13.5291 7.5 13.5436C7.5 13.5581 7.5 13.5726 7.5 13.5871C7.5 13.6016 7.5 13.6161 7.5 13.6307C7.5 13.6452 7.5 13.6597 7.5 13.6742C7.5 13.6888 7.5 13.7033 7.5 13.7178C7.5 13.7324 7.5 13.7469 7.5 13.7614C7.5 13.776 7.5 13.7905 7.5 13.8051C7.5 13.8196 7.5 13.8342 7.5 13.8487C7.5 13.8633 7.5 13.8779 7.5 13.8924C7.5 13.907 7.5 13.9216 7.5 13.9361C7.5 13.9507 7.5 13.9653 7.5 13.9798C7.5 13.9944 7.5 14.009 7.5 14.0236C7.5 14.0382 7.5 14.0528 7.5 14.0674C7.5 14.082 7.5 14.0965 7.5 14.1111C7.5 14.1257 7.5 14.1404 7.5 14.155C7.5 14.1696 7.5 14.1842 7.5 14.1988C7.5 14.2134 7.5 14.228 7.5 14.2426C7.5 14.2573 7.5 14.2719 7.5 14.2865C7.5 14.3011 7.5 14.3158 7.5 14.3304C7.5 14.345 7.5 14.3597 7.5 14.3743C7.5 14.3889 7.5 14.4036 7.5 14.4182C7.5 14.4329 7.5 14.4475 7.5 14.4622C7.5 14.4768 7.5 14.4915 7.5 14.5061C7.5 14.5208 7.5 14.5355 7.5 14.5501C7.5 14.5648 7.5 14.5795 7.5 14.5941C7.5 14.6088 7.5 14.6235 7.5 14.6382C7.5 14.6528 7.5 14.6675 7.5 14.6822C7.5 14.6969 7.5 14.7116 7.5 14.7263C7.5 14.741 7.5 14.7556 7.5 14.7703C7.5 14.785 7.5 14.7997 7.5 14.8144C7.5 14.8291 7.5 14.8438 7.5 14.8585C7.5 14.8733 7.5 14.888 7.5 14.9027C7.5 14.9174 7.5 14.9321 7.5 14.9468C7.5 14.9615 7.5 14.9763 7.5 14.991C7.5 15.0057 7.5 15.0204 7.5 15.0352C7.5 15.0499 7.5 15.0646 7.5 15.0794C7.5 15.0941 7.5 15.1088 7.5 15.1236C7.5 15.1383 7.5 15.1531 7.5 15.1678C7.5 15.1826 7.5 15.1973 7.5 15.2121C7.5 15.2268 7.5 15.2416 7.5 15.2563C7.5 15.2711 7.5 15.2858 7.5 15.3006C7.5 15.3154 7.5 15.3301 7.5 15.3449C7.5 15.3597 7.5 15.3744 7.5 15.3892C7.5 15.404 7.5 15.4188 7.5 15.4335C7.5 15.4483 7.5 15.4631 7.5 15.4779C7.5 15.4927 7.5 15.5074 7.5 15.5222C7.5 15.537 7.5 15.5518 7.5 15.5666C7.5 15.5814 7.5 15.5962 7.5 15.611C7.5 15.6258 7.5 15.6406 7.5 15.6554C7.5 15.6702 7.5 15.685 7.5 15.6998C7.5 15.7146 7.5 15.7294 7.5 15.7442C7.5 15.759 7.5 15.7738 7.5 15.7887C7.5 15.8035 7.5 15.8183 7.5 15.8331C7.5 15.8479 7.5 15.8627 7.5 15.8776C7.5 15.8924 7.5 15.9072 7.5 15.922C7.5 15.9369 7.5 15.9517 7.5 15.9665C7.5 15.9814 7.5 15.9962 7.5 16.011C7.5 16.0259 7.5 16.0407 7.5 16.0556C7.5 16.0704 7.5 16.0852 7.5 16.1001C7.5 16.1149 7.5 16.1298 7.5 16.1446C7.5 16.1595 7.5 16.1743 7.5 16.1892C7.5 16.204 7.5 16.2189 7.5 16.2337C7.5 16.2486 7.5 16.2635 7.5 16.2783C7.5 16.2932 7.5 16.308 7.5 16.3229C7.5 16.3378 7.5 16.3526 7.5 16.3675C7.5 16.3824 7.5 16.3972 7.5 16.4121C7.5 16.427 7.5 16.4418 7.5 16.4567C7.5 16.4716 7.5 16.4865 7.5 16.5013C7.5 16.5162 7.5 16.5311 7.5 16.546C7.5 16.5609 7.5 16.5757 7.5 16.5906C7.5 16.6055 7.5 16.6204 7.5 16.6353C7.5 16.6502 7.5 16.6651 7.5 16.68C7.5 16.6949 7.5 16.7097 7.5 16.7246C7.5 16.7395 7.5 16.7544 7.5 16.7693C7.5 16.7842 7.5 16.7991 7.5 16.814C7.5 16.8289 7.5 16.8438 7.5 16.8587C7.5 16.8736 7.5 16.8885 7.5 16.9034C7.5 16.9183 7.5 16.9333 7.5 16.9482C7.5 16.9631 7.5 16.978 7.5 16.9929C7.5 17.0078 7.5 17.0227 7.5 17.0376C7.5 17.0525 7.5 17.0675 7.5 17.0824C7.5 17.0973 7.5 17.1122 7.5 17.1271C7.5 17.142 7.5 17.157 7.5 17.1719C7.5 17.1868 7.5 17.2017 7.5 17.2167C7.5 17.2316 7.5 17.2465 7.5 17.2614C7.5 17.2764 7.5 17.2913 7.5 17.3062C7.5 17.3211 7.5 17.3361 7.5 17.351C7.5 17.3659 7.5 17.3809 7.5 17.3958C7.5 17.4107 7.5 17.4257 7.5 17.4406C7.5 17.4555 7.5 17.4705 7.5 17.4854C7.5 17.5004 7.5 17.5153 7.5 17.5302C7.5 17.5452 7.5 17.5601 7.5 17.5751C7.5 17.59 7.5 17.6049 7.5 17.6199C7.5 17.6348 7.5 17.6498 7.5 17.6647C7.5 17.6797 7.5 17.6946 7.5 17.7095C7.5 17.7245 7.5 17.7394 7.5 17.7544C7.5 17.7693 7.5 17.7843 7.5 17.7992C7.5 17.8142 7.5 17.8291 7.5 17.8441C7.5 17.859 7.5 17.874 7.5 17.8889C7.5 17.9039 7.5 17.9188 7.5 17.9338C7.5 17.9488 7.5 17.9637 7.5 17.9787C7.5 17.9936 7.5 18.0086 7.5 18.0235C7.5 18.0385 7.5 18.0534 7.5 18.0684C7.5 18.0834 7.5 18.0983 7.5 18.1133C7.5 18.1282 7.5 18.1432 7.5 18.1582C7.5 18.1731 7.5 18.1881 7.5 18.203C7.5 18.218 7.5 18.233 7.5 18.2479C7.5 18.2629 7.5 18.2778 7.5 18.2928C7.5 18.3078 7.5 18.3227 7.5 18.3377C7.5 18.3527 7.5 18.3676 7.5 18.3826C7.5 18.3976 7.5 18.4125 7.5 18.4275C7.5 18.4424 7.5 18.4574 7.5 18.4724C7.5 18.4873 7.5 18.5023 7.5 18.5173C7.5 18.5322 7.5 18.5472 7.5 18.5622C7.5 18.5771 7.5 18.5921 7.5 18.6071C7.5 18.622 7.5 18.637 7.5 18.652C7.5 18.6669 7.5 18.6819 7.5 18.6969C7.5 18.7118 7.5 18.7268 7.5 18.7418C7.5 18.7567 7.5 18.7717 7.5 18.7867C7.5 18.8016 7.5 18.8166 7.5 18.8316C7.5 18.8466 7.5 18.8615 7.5 18.8765C7.5 18.8915 7.5 18.9064 7.5 18.9214C7.5 18.9364 7.5 18.9513 7.5 18.9663C7.5 18.9813 7.5 18.9962 7.5 19.0112C7.5 19.0262 7.5 19.0411 7.5 19.0561C7.5 19.0711 7.5 19.086 7.5 19.101C7.5 19.116 7.5 19.1309 7.5 19.1459C7.5 19.1609 7.5 19.1758 7.5 19.1908C7.5 19.2058 7.5 19.2207 7.5 19.2357C7.5 19.2507 7.5 19.2656 7.5 19.2806C7.5 19.2956 7.5 19.3105 7.5 19.3255C7.5 19.3405 7.5 19.3554 7.5 19.3704C7.5 19.3853 7.5 19.4003 7.5 19.4153C7.5 19.4302 7.5 19.4452 7.5 19.4602C7.5 19.4751 7.5 19.4901 7.5 19.505C7.5 19.52 7.5 19.535 7.5 19.5499C7.5 19.5649 7.5 19.5798 7.5 19.5948C7.5 19.6098 7.5 19.6247 7.5 19.6397C7.5 19.6546 7.5 19.6696 7.5 19.6846C7.5 19.6995 7.5 19.7145 7.5 19.7294C7.5 19.7444 7.5 19.7593 7.5 19.7743C7.5 19.7892 7.5 19.8042 7.5 19.8192C7.5 19.8341 7.5 19.8491 7.5 19.864C7.5 19.879 7.5 19.8939 7.5 19.9089C7.5 19.9238 7.5 19.9388 7.5 19.9537C7.5 19.9687 7.5 19.9836 7.5 19.9986C7.5 20.0135 7.5 20.0285 7.5 20.0434C7.5 20.0583 7.5 20.0733 7.5 20.0882C7.5 20.1032 7.5 20.1181 7.5 20.1331C7.5 20.148 7.5 20.1629 7.5 20.1779C7.5 20.1928 7.5 20.2078 7.5 20.2227C7.5 20.2376 7.5 20.2526 7.5 20.2675C7.5 20.2825 7.5 20.2974 7.5 20.3123C7.5 20.3273 7.5 20.3422 7.5 20.3571C7.5 20.3721 7.5 20.387 7.5 20.4019C7.5 20.4169 7.5 20.4318 7.5 20.4467C7.5 20.4616 7.5 20.4766 7.5 20.4915C7.5 20.5064 7.5 20.5213 7.5 20.5363C7.5 20.5512 7.5 20.5661 7.5 20.581C7.5 20.5959 7.5 20.6109 7.5 20.6258C7.5 20.6407 7.5 20.6556 7.5 20.6705C7.5 20.6855 7.5 20.7004 7.5 20.7153C7.5 20.7302 7.5 20.7451 7.5 20.76C7.5 20.7749 7.5 20.7898 7.5 20.8047C7.5 20.8196 7.5 20.8346 7.5 20.8495C7.5 20.8644 7.5 20.8793 7.5 20.8942C7.5 20.9091 7.5 20.924 7.5 20.9389C7.5 20.9538 7.5 20.9687 7.5 20.9836C7.5 20.9985 7.5 21.0134 7.5 21.0282C7.5 21.0431 7.5 21.058 7.5 21.0729C7.5 21.0878 7.5 21.1027 7.5 21.1176C7.5 21.1325 7.5 21.1474 7.5 21.1622C7.5 21.1771 7.5 21.192 7.5 21.2069C7.5 21.2218 7.5 21.2366 7.5 21.2515C7.5 21.2664 7.5 21.2813 7.5 21.2961C7.5 21.311 7.5 21.3259 7.5 21.3408C7.5 21.3556 7.5 21.3705 7.5 21.3854C7.5 21.4002 7.5 21.4151 7.5 21.43C7.5 21.4448 7.5 21.4597 7.5 21.4745C7.5 21.4894 7.5 21.5043 7.5 21.5191C7.5 21.534 7.5 21.5488 7.5 21.5637C7.5 21.5785 7.5 21.5934 7.5 21.6082C7.5 21.6231 7.5 21.6379 7.5 21.6527C7.5 21.6676 7.5 21.6824 7.5 21.6973C7.5 21.7121 7.5 21.7269 7.5 21.7418C7.5 21.7566 7.5 21.7714 7.5 21.7863C7.5 21.8011 7.5 21.8159 7.5 21.8308C7.5 21.8456 7.5 21.8604 7.5 21.8752C7.5 21.8901 7.5 21.9049 7.5 21.9197C7.5 21.9345 7.5 21.9493 7.5 21.9641C7.5 21.979 7.5 21.9938 7.5 22.0086C7.5 22.0234 7.5 22.0382 7.5 22.053C7.5 22.0678 7.5 22.0826 7.5 22.0974C7.5 22.1122 7.5 22.127 7.5 22.1418C7.5 22.1566 7.5 22.1714 7.5 22.1862C7.5 22.201 7.5 22.2157 7.5 22.2305C7.5 22.2453 7.5 22.2601 7.5 22.2749C7.5 22.2897 7.5 22.3044 7.5 22.3192C7.5 22.334 7.5 22.3488 7.5 22.3635C7.5 22.3783 7.5 22.3931 7.5 22.4078C7.5 22.4226 7.5 22.4374 7.5 22.4521C7.5 22.4669 7.5 22.4816 7.5 22.4964C7.5 22.5112 7.5 22.5259 7.5 22.5407C7.5 22.5554 7.5 22.5701 7.5 22.5849C7.5 22.5996 7.5 22.6144 7.5 22.6291C7.5 22.6439 7.5 22.6586 7.5 22.6733C7.5 22.6881 7.5 22.7028 7.5 22.7175C7.5 22.7322 7.5 22.747 7.5 22.7617C7.5 22.7764 7.5 22.7911 7.5 22.8059C7.5 22.8206 7.5 22.8353 7.5 22.85C7.5 22.8647 7.5 22.8794 7.5 22.8941C7.5 22.9088 7.5 22.9235 7.5 22.9382C7.5 22.9529 7.5 22.9676 7.5 22.9823C7.5 22.997 7.5 23.0117 7.5 23.0264C7.5 23.0411 7.5 23.0558 7.5 23.0704C7.5 23.0851 7.5 23.0998 7.5 23.1145C7.5 23.1291 7.5 23.1438 7.5 23.1585C7.5 23.1732 7.5 23.1878 7.5 23.2025C7.5 23.2171 7.5 23.2318 7.5 23.2465C7.5 23.2611 7.5 23.2758 7.5 23.2904C7.5 23.3051 7.5 23.3197 7.5 23.3344C7.5 23.349 7.5 23.3637 7.5 23.3783C7.5 23.3929 7.5 23.4076 7.5 23.4222C7.5 23.4368 7.5 23.4514 7.5 23.4661C7.5 23.4807 7.5 23.4953 7.5 23.5099C7.5 23.5245 7.5 23.5392 7.5 23.5538C7.5 23.5684 7.5 23.583 7.5 23.5976C7.5 23.6122 7.5 23.6268 7.5 23.6414C7.5 23.656 7.5 23.6706 7.5 23.6852C7.5 23.6998 7.5 23.7144 7.5 23.7289C7.5 23.7435 7.5 23.7581 7.5 23.7727C7.5 23.7872 7.5 23.8018 7.5 23.8164C7.5 23.831 7.5 23.8455 7.5 23.8601C7.5 23.8746 7.5 23.8892 7.5 23.9038C7.5 23.9183 7.5 23.9329 7.5 23.9474C7.5 23.962 7.5 23.9765 7.5 23.991C7.5 24.0056 7.5 24.0201 7.5 24.0346C7.5 24.0492 7.5 24.0637 7.5 24.0782C7.5 24.0928 7.5 24.1073 7.5 24.1218C7.5 24.1363 7.5 24.1508 7.5 24.1653C7.5 24.1798 7.5 24.1943 7.5 24.2088C7.5 24.2233 7.5 24.2378 7.5 24.2523C7.5 24.2668 7.5 24.2813 7.5 24.2958C7.5 24.3103 7.5 24.3248 7.5 24.3392C7.5 24.3537 7.5 24.3682 7.5 24.3827C7.5 24.3971 7.5 24.4116 7.5 24.4261C7.5 24.4405 7.5 24.455 7.5 24.4694C7.5 24.4839 7.5 24.4983 7.5 24.5128C7.5 24.5272 7.5 24.5417 7.5 24.5561C7.5 24.5705 7.5 24.585 7.5 24.5994C7.5 24.6138 7.5 24.6283 7.5 24.6427C7.5 24.6571 7.5 24.6715 7.5 24.6859C7.5 24.7003 7.5 24.7147 7.5 24.7292C7.5 24.7436 7.5 24.758 7.5 24.7724C7.5 24.7867 7.5 24.8011 7.5 24.8155C7.5 24.8299 7.5 24.8443 7.5 24.8587C7.5 24.873 7.5 24.8874 7.5 24.9018C7.5 24.9162 7.5 24.9305 7.5 24.9449C7.5 24.9592 7.5 24.9736 7.5 24.9879C7.5 25.0023 7.5 25.0166 7.5 25.031C7.5 25.0453 7.5 25.0597 7.5 25.074C7.5 25.0883 7.5 25.1027 7.5 25.117C7.5 25.1313 7.5 25.1456 7.5 25.1599C7.5 25.1743 7.5 25.1886 7.5 25.2029C7.5 25.2172 7.5 25.2315 7.5 25.2458C7.5 25.2601 7.5 25.2744 7.5 25.2886C7.5 25.3029 7.5 25.3172 7.5 25.3315C7.5 25.3458 7.5 25.36 7.5 25.3743C7.5 25.3886 7.5 25.4028 7.5 25.4171C7.5 25.4314 7.5 25.4456 7.5 25.4599C7.5 25.4741 7.5 25.4884 7.5 25.5026C7.5 25.5168 7.5 25.5311 7.5 25.5453C7.5 25.5595 7.5 25.5738 7.5 25.588C7.5 25.6022 7.5 25.6164 7.5 25.6306C7.5 25.6448 7.5 25.659 7.5 25.6732C7.5 25.6874 7.5 25.7016 7.5 25.7158C7.5 25.73 7.5 25.7442 7.5 25.7584C7.5 25.7726 7.5 25.7867 7.5 25.8009C7.5 25.8151 7.5 25.8292 7.5 25.8434C7.5 25.8576 7.5 25.8717 7.5 25.8859C7.5 25.9 7.5 25.9141 7.5 25.9283C7.5 25.9424 7.5 25.9566 7.5 25.9707C7.5 25.9848 7.5 25.9989 7.5 26.0131C7.5 26.0272 7.5 26.0413 7.5 26.0554C7.5 26.0695 7.5 26.0836 7.5 26.0977C7.5 26.1118 7.5 26.1259 7.5 26.14C7.5 26.1541 7.5 26.1681 7.5 26.1822C7.5 26.1963 7.5 26.2104 7.5 26.2244C7.5 26.2385 7.5 26.2526 7.5 26.2666C7.5 26.2807 7.5 26.2947 7.5 26.3088C7.5 26.3228 7.5 26.3368 7.5 26.3509C7.5 26.3649 7.5 26.3789 7.5 26.393C7.5 26.407 7.5 26.421 7.5 26.435C7.5 26.449 7.5 26.463 7.5 26.477C7.5 26.491 7.5 26.505 7.5 26.519C7.5 26.533 7.5 26.547 7.5 26.5609C7.5 26.5749 7.5 26.5889 7.5 26.6028C7.5 26.6168 7.5 26.6308 7.5 26.6447C7.5 26.6587 7.5 26.6726 7.5 26.6866C7.5 26.7005 7.5 26.7144 7.5 26.7284C7.5 26.7423 7.5 26.7562 7.5 26.7702C7.5 26.7841 7.5 26.798 7.5 26.8119C7.5 26.8258 7.5 26.8397 7.5 26.8536C7.5 26.8675 7.5 26.8814 7.5 26.8953C7.5 26.9092 7.5 26.923 7.5 26.9369C7.5 26.9508 7.5 26.9646 7.5 26.9785C7.5 26.9924 7.5 27.0062 7.5 27.0201C7.5 27.0339 7.5 27.0478 7.5 27.0616C7.5 27.0754 7.5 27.0893 7.5 27.1031C7.5 27.1169 7.5 27.1307 7.5 27.1445C7.5 27.1583 7.5 27.1721 7.5 27.1859C7.5 27.1997 7.5 27.2135 7.5 27.2273C7.5 27.2411 7.5 27.2549 7.5 27.2687C7.5 27.2824 7.5 27.2962 7.5 27.31C7.5 27.3237 7.5 27.3375 7.5 27.3512C7.5 27.365 7.5 27.3787 7.5 27.3925C7.5 27.4062 7.5 27.4199 7.5 27.4337C7.5 27.4474 7.5 27.4611 7.5 27.4748C7.5 27.4885 7.5 27.5022 7.5 27.5159C7.5 27.5296 7.5 27.5433 7.5 27.557C7.5 27.5707 7.5 27.5844 7.5 27.5981C7.5 27.6117 7.5 27.6254 7.5 27.6391C7.5 27.6527 7.5 27.6664 7.5 27.68C7.5 27.6937 7.5 27.7073 7.5 27.7209C7.5 27.7346 7.5 27.7482 7.5 27.7618C7.5 27.7754 7.5 27.7891 7.5 27.8027C7.5 27.8163 7.5 27.8299 7.5 27.8435C7.5 27.8571 7.5 27.8706 7.5 27.8842C7.5 27.8978 7.5 27.9114 7.5 27.925C7.5 27.9385 7.5 27.9521 7.5 27.9656C7.5 27.9792 7.5 27.9927 7.5 28.0063C7.5 28.0198 7.5 28.0334 7.5 28.0469C7.5 28.0604 7.5 28.0739 7.5 28.0874C7.5 28.101 7.5 28.1145 7.5 28.128C7.5 28.1415 7.5 28.155 7.5 28.1684C7.5 28.1819 7.5 28.1954 7.5 28.2089C7.5 28.2223 7.5 28.2358 7.5 28.2493C7.5 28.2627 7.5 28.2762 7.5 28.2896C7.5 28.3031 7.5 28.3165 7.5 28.3299C7.5 28.3434 7.5 28.3568 7.5 28.3702C7.5 28.3836 7.5 28.397 7.5 28.4104C7.5 28.4238 7.5 28.4372 7.5 28.4506C7.5 28.464 7.5 28.4774 7.5 28.4908C7.5 28.5041 7.5 28.5175 7.5 28.5309C7.5 28.5442 7.5 28.5576 7.5 28.5709C7.5 28.5843 7.5 28.5976 7.5 28.6109C7.5 28.6242 7.5 28.6376 7.5 28.6509C7.5 28.6642 7.5 28.6775 7.5 28.6908C7.5 28.7041 7.5 28.7174 7.5 28.7307C7.5 28.744 7.5 28.7573 7.5 28.7705C7.5 28.7838 7.5 28.7971 7.5 28.8103C7.5 28.8236 7.5 28.8368 7.5 28.8501C7.5 28.8633 7.5 28.8765 7.5 28.8898C7.5 28.903 7.5 28.9162 7.5 28.9294C7.5 28.9426 7.5 28.9558 7.5 28.969C7.5 28.9822 7.5 28.9954 7.5 29.0086C7.5 29.0218 7.5 29.035 7.5 29.0481C7.5 29.0613 7.5 29.0744 7.5 29.0876C7.5 29.1007 7.5 29.1139 7.5 29.127C7.5 29.1402 7.5 29.1533 7.5 29.1664C7.5 29.1795 7.5 29.1926 7.5 29.2057C7.5 29.2188 7.5 29.2319 7.5 29.245C7.5 29.2581 7.5 29.2712 7.5 29.2843C7.5 29.2973 7.5 29.3104 7.5 29.3235C7.5 29.3365 7.5 29.3496 7.5 29.3626C7.5 29.3757 7.5 29.3887 7.5 29.4017C7.5 29.4147 7.5 29.4278 7.5 29.4408C7.5 29.4538 7.5 29.4668 7.5 29.4798C7.5 29.4928 7.5 29.5058 7.5 29.5187C7.5 29.5317 7.5 29.5447 7.5 29.5576C7.5 29.5706 7.5 29.5836 7.5 29.5965C7.5 29.6095 7.5 29.6224 7.5 29.6353C7.5 29.6482 7.5 29.6612 7.5 29.6741C7.5 29.687 7.5 29.6999 7.5 29.7128C7.5 29.7257 7.5 29.7386 7.5 29.7515C7.5 29.7643 7.5 29.7772 7.5 29.7901C7.5 29.8029 7.5 29.8158 7.5 29.8287C7.5 29.8415 7.5 29.8543 7.5 29.8672C7.5 29.88 7.5 29.8928 7.5 29.9056C7.5 29.9185 7.5 29.9313 7.5 29.9441C7.5 29.9569 7.5 29.9696 7.5 29.9824C7.5 29.9952 7.5 30.008 7.5 30.0207C7.5 30.0335 7.5 30.0463 7.5 30.059C7.5 30.0718 7.5 30.0845 7.5 30.0972C7.5 30.11 7.5 30.1227 7.5 30.1354C7.5 30.1481 7.5 30.1608 7.5 30.1735C7.5 30.1862 7.5 30.1989 7.5 30.2116C7.5 30.2242 7.5 30.2369 7.5 30.2496C7.5 30.2622 7.5 30.2749 7.5 30.2875C7.5 30.3002 7.5 30.3128 7.5 30.3254C7.5 30.3381 7.5 30.3507 7.5 30.3633C7.5 30.3759 7.5 30.3885 7.5 30.4011C7.5 30.4137 7.5 30.4263 7.5 30.4389C7.5 30.4514 7.5 30.464 7.5 30.4765C7.5 30.4891 7.5 30.5017 7.5 30.5142C7.5 30.5267 7.5 30.5393 7.5 30.5518C7.5 30.5643 7.5 30.5768 7.5 30.5893C7.5 30.6018 7.5 30.6143 7.5 30.6268C7.5 30.6393 7.5 30.6518 7.5 30.6642C7.5 30.6767 7.5 30.6892 7.5 30.7016C7.5 30.7141 7.5 30.7265 7.5 30.7389C7.5 30.7514 7.5 30.7638 7.5 30.7762C7.5 30.7886 7.5 30.801 7.5 30.8134C7.5 30.8258 7.5 30.8382 7.5 30.8506C7.5 30.863 7.5 30.8753 7.5 30.8877C7.5 30.9 7.5 30.9124 7.5 30.9247C7.5 30.9371 7.5 30.9494 7.5 30.9617C7.5 30.974 7.5 30.9864 7.5 30.9987C7.5 31.011 7.5 31.0233 7.5 31.0355C7.5 31.0478 7.5 31.0601 7.5 31.0724C7.5 31.0846 7.5 31.0969 7.5 31.1091C7.5 31.1214 7.5 31.1336 7.5 31.1459C7.5 31.1581 7.5 31.1703 7.5 31.1825C7.5 31.1947 7.5 31.2069 7.5 31.2191C7.5 31.2313 7.5 31.2435 7.5 31.2557C7.5 31.2678 7.5 31.28 7.5 31.2922C7.5 31.3043 7.5 31.3164 7.5 31.3286C7.5 31.3407 7.5 31.3528 7.5 31.365C7.5 31.3771 7.5 31.3892 7.5 31.4013C7.5 31.4134 7.5 31.4255 7.5 31.4375C7.5 31.4496 7.5 31.4617 7.5 31.4737C7.5 31.4858 7.5 31.4978 7.5 31.5099C7.5 31.5219 7.5 31.5339 7.5 31.546C7.5 31.558 7.5 31.57 7.5 31.582C7.5 31.594 7.5 31.606 7.5 31.6179C7.5 31.6299 7.5 31.6419 7.5 31.6538C7.5 31.6658 7.5 31.6778 7.5 31.6897C7.5 31.7016 7.5 31.7136 7.5 31.7255C7.5 31.7374 7.5 31.7493 7.5 31.7612C7.5 31.7731 7.5 31.785 7.5 31.7969C7.5 31.8088 7.5 31.8206 7.5 31.8325C7.5 31.8444 7.5 31.8562 7.5 31.868C7.5 31.8799 7.5 31.8917 7.5 31.9035C7.5 31.9153 7.5 31.9272 7.5 31.939C7.5 31.9508 7.5 31.9625 7.5 31.9743C7.5 31.9861 7.5 31.9979 7.5 32.0096C7.5 32.0214 7.5 32.0331 7.5 32.0449C7.5 32.0566 7.5 32.0683 7.5 32.0801C7.5 32.0918 7.5 32.1035 7.5 32.1152C7.5 32.1269 7.5 32.1386 7.5 32.1502C7.5 32.1619 7.5 32.1736 7.5 32.1852C7.5 32.1969 7.5 32.2085 7.5 32.2202C7.5 32.2318 7.5 32.2434 7.5 32.2551C7.5 32.2667 7.5 32.2783 7.5 32.2899C7.5 32.3015 7.5 32.313 7.5 32.3246C7.5 32.3362 7.5 32.3478 7.5 32.3593C7.5 32.3709 7.5 32.3824 7.5 32.3939C7.5 32.4055 7.5 32.417 7.5 32.4285C7.5 32.44 7.5 32.4515 7.5 32.463C7.5 32.4745 7.5 32.486 7.5 32.4974C7.5 32.5089 7.5 32.5203 7.5 32.5318C7.5 32.5432 7.5 32.5547 7.5 32.5661C7.5 32.5775 7.5 32.5889 7.5 32.6003C7.5 32.6117 7.5 32.6231 7.5 32.6345C7.5 32.6459 7.5 32.6573 7.5 32.6686C7.5 32.68 7.5 32.6913 7.5 32.7027C7.5 32.714 7.5 32.7253 7.5 32.7367C7.5 32.748 7.5 32.7593 7.5 32.7706C7.5 32.7819 7.5 32.7932 7.5 32.8044C7.5 32.8157 7.5 32.827 7.5 32.8382C7.5 32.8495 7.5 32.8607 7.5 32.8719C7.5 32.8832 7.5 32.8944 7.5 32.9056C7.5 32.9168 7.5 32.928 7.5 32.9392C7.5 32.9504 7.5 32.9615 7.5 32.9727C7.5 32.9839 7.5 32.995 7.5 33.0062C7.5 33.0173 7.5 33.0284 7.5 33.0395C7.5 33.0507 7.5 33.0618 7.5 33.0729C7.5 33.084 7.5 33.0951 7.5 33.1061C7.5 33.1172 7.5 33.1283 7.5 33.1393C7.5 33.1504 7.5 33.1614 7.5 33.1724C7.5 33.1835 7.5 33.1945 7.5 33.2055C7.5 33.2165 7.5 33.2275 7.5 33.2385C7.5 33.2495 7.5 33.2604 7.5 33.2714C7.5 33.2824 7.5 33.2933 7.5 33.3042C7.5 33.3152 7.5 33.3261 7.5 33.337C7.5 33.3479 7.5 33.3588 7.5 33.3697C7.5 33.3806 7.5 33.3915 7.5 33.4024C7.5 33.4132 7.5 33.4241 7.5 33.4349C7.5 33.4458 7.5 33.4566 7.5 33.4675C7.5 33.4783 7.5 33.4891 7.5 33.4999C7.5 33.5107 7.5 33.5215 7.5 33.5323C7.5 33.543 7.5 33.5538 7.5 33.5646C7.5 33.5753 7.5 33.586 7.5 33.5968C7.5 33.6075 7.5 33.6182 7.5 33.6289C7.5 33.6396 7.5 33.6503 7.5 33.661C7.5 33.6717 7.5 33.6824 7.5 33.693C7.5 33.7037 7.5 33.7143 7.5 33.725C7.5 33.7356 7.5 33.7462 7.5 33.7568C7.5 33.7675 7.5 33.7781 7.5 33.7887C7.5 33.7992 7.5 33.8098 7.5 33.8204C7.5 33.8309 7.5 33.8415 7.5 33.852C7.5 33.8626 7.5 33.8731 7.5 33.8836C7.5 33.8941 7.5 33.9046 7.5 33.9151C7.5 33.9256 7.5 33.9361 7.5 33.9466C7.5 33.9571 7.5 33.9675 7.5 33.978C7.5 33.9884 7.5 33.9988 7.5 34.0093C7.5 34.0197 7.5 34.0301 7.5 34.0405C7.5 34.0509 7.5 34.0613 7.5 34.0716C7.5 34.082 7.5 34.0924 7.5 34.1027C7.5 34.1131 7.5 34.1234 7.5 34.1337C7.5 34.144 7.5 34.1543 7.5 34.1646C7.5 34.1749 7.5 34.1852 7.5 34.1955C7.5 34.2058 7.5 34.216 7.5 34.2263C7.5 34.2365 7.5 34.2468 7.5 34.257C7.5 34.2672 7.5 34.2774 7.5 34.2876C7.5 34.2978 7.5 34.308 7.5 34.3182C7.5 34.3284 7.5 34.3385 7.5 34.3487C7.5 34.3588 7.5 34.369 7.5 34.3791C7.5 34.3892 7.5 34.3993 7.5 34.4094C7.5 34.4195 7.5 34.4296 7.5 34.4397C7.5 34.4498 7.5 34.4598 7.5 34.4699C7.5 34.4799 7.5 34.49 7.5 34.5L10.5 34.5C10.5 34.49 10.5 34.4799 10.5 34.4699C10.5 34.4598 10.5 34.4498 10.5 34.4397C10.5 34.4296 10.5 34.4195 10.5 34.4094C10.5 34.3993 10.5 34.3892 10.5 34.3791C10.5 34.369 10.5 34.3588 10.5 34.3487C10.5 34.3385 10.5 34.3284 10.5 34.3182C10.5 34.308 10.5 34.2978 10.5 34.2876C10.5 34.2774 10.5 34.2672 10.5 34.257C10.5 34.2468 10.5 34.2365 10.5 34.2263C10.5 34.216 10.5 34.2058 10.5 34.1955C10.5 34.1852 10.5 34.1749 10.5 34.1646C10.5 34.1543 10.5 34.144 10.5 34.1337C10.5 34.1234 10.5 34.1131 10.5 34.1027C10.5 34.0924 10.5 34.082 10.5 34.0716C10.5 34.0613 10.5 34.0509 10.5 34.0405C10.5 34.0301 10.5 34.0197 10.5 34.0093C10.5 33.9988 10.5 33.9884 10.5 33.978C10.5 33.9675 10.5 33.9571 10.5 33.9466C10.5 33.9361 10.5 33.9256 10.5 33.9151C10.5 33.9046 10.5 33.8941 10.5 33.8836C10.5 33.8731 10.5 33.8626 10.5 33.852C10.5 33.8415 10.5 33.8309 10.5 33.8204C10.5 33.8098 10.5 33.7992 10.5 33.7886C10.5 33.7781 10.5 33.7675 10.5 33.7568C10.5 33.7462 10.5 33.7356 10.5 33.725C10.5 33.7143 10.5 33.7037 10.5 33.693C10.5 33.6824 10.5 33.6717 10.5 33.661C10.5 33.6503 10.5 33.6396 10.5 33.6289C10.5 33.6182 10.5 33.6075 10.5 33.5968C10.5 33.586 10.5 33.5753 10.5 33.5646C10.5 33.5538 10.5 33.543 10.5 33.5323C10.5 33.5215 10.5 33.5107 10.5 33.4999C10.5 33.4891 10.5 33.4783 10.5 33.4675C10.5 33.4566 10.5 33.4458 10.5 33.4349C10.5 33.4241 10.5 33.4132 10.5 33.4024C10.5 33.3915 10.5 33.3806 10.5 33.3697C10.5 33.3588 10.5 33.3479 10.5 33.337C10.5 33.3261 10.5 33.3152 10.5 33.3042C10.5 33.2933 10.5 33.2824 10.5 33.2714C10.5 33.2604 10.5 33.2495 10.5 33.2385C10.5 33.2275 10.5 33.2165 10.5 33.2055C10.5 33.1945 10.5 33.1835 10.5 33.1724C10.5 33.1614 10.5 33.1504 10.5 33.1393C10.5 33.1283 10.5 33.1172 10.5 33.1061C10.5 33.0951 10.5 33.084 10.5 33.0729C10.5 33.0618 10.5 33.0507 10.5 33.0395C10.5 33.0284 10.5 33.0173 10.5 33.0062C10.5 32.995 10.5 32.9839 10.5 32.9727C10.5 32.9615 10.5 32.9504 10.5 32.9392C10.5 32.928 10.5 32.9168 10.5 32.9056C10.5 32.8944 10.5 32.8832 10.5 32.8719C10.5 32.8607 10.5 32.8495 10.5 32.8382C10.5 32.827 10.5 32.8157 10.5 32.8044C10.5 32.7932 10.5 32.7819 10.5 32.7706C10.5 32.7593 10.5 32.748 10.5 32.7367C10.5 32.7253 10.5 32.714 10.5 32.7027C10.5 32.6913 10.5 32.68 10.5 32.6686C10.5 32.6573 10.5 32.6459 10.5 32.6345C10.5 32.6231 10.5 32.6117 10.5 32.6003C10.5 32.5889 10.5 32.5775 10.5 32.5661C10.5 32.5547 10.5 32.5432 10.5 32.5318C10.5 32.5203 10.5 32.5089 10.5 32.4974C10.5 32.486 10.5 32.4745 10.5 32.463C10.5 32.4515 10.5 32.44 10.5 32.4285C10.5 32.417 10.5 32.4055 10.5 32.3939C10.5 32.3824 10.5 32.3709 10.5 32.3593C10.5 32.3478 10.5 32.3362 10.5 32.3246C10.5 32.313 10.5 32.3015 10.5 32.2899C10.5 32.2783 10.5 32.2667 10.5 32.2551C10.5 32.2434 10.5 32.2318 10.5 32.2202C10.5 32.2085 10.5 32.1969 10.5 32.1852C10.5 32.1736 10.5 32.1619 10.5 32.1502C10.5 32.1386 10.5 32.1269 10.5 32.1152C10.5 32.1035 10.5 32.0918 10.5 32.0801C10.5 32.0683 10.5 32.0566 10.5 32.0449C10.5 32.0331 10.5 32.0214 10.5 32.0096C10.5 31.9979 10.5 31.9861 10.5 31.9743C10.5 31.9625 10.5 31.9508 10.5 31.939C10.5 31.9272 10.5 31.9153 10.5 31.9035C10.5 31.8917 10.5 31.8799 10.5 31.868C10.5 31.8562 10.5 31.8444 10.5 31.8325C10.5 31.8206 10.5 31.8088 10.5 31.7969C10.5 31.785 10.5 31.7731 10.5 31.7612C10.5 31.7493 10.5 31.7374 10.5 31.7255C10.5 31.7136 10.5 31.7016 10.5 31.6897C10.5 31.6778 10.5 31.6658 10.5 31.6538C10.5 31.6419 10.5 31.6299 10.5 31.6179C10.5 31.606 10.5 31.594 10.5 31.582C10.5 31.57 10.5 31.558 10.5 31.546C10.5 31.5339 10.5 31.5219 10.5 31.5099C10.5 31.4978 10.5 31.4858 10.5 31.4737C10.5 31.4617 10.5 31.4496 10.5 31.4375C10.5 31.4255 10.5 31.4134 10.5 31.4013C10.5 31.3892 10.5 31.3771 10.5 31.365C10.5 31.3528 10.5 31.3407 10.5 31.3286C10.5 31.3164 10.5 31.3043 10.5 31.2921C10.5 31.28 10.5 31.2678 10.5 31.2557C10.5 31.2435 10.5 31.2313 10.5 31.2191C10.5 31.2069 10.5 31.1947 10.5 31.1825C10.5 31.1703 10.5 31.1581 10.5 31.1459C10.5 31.1336 10.5 31.1214 10.5 31.1091C10.5 31.0969 10.5 31.0846 10.5 31.0724C10.5 31.0601 10.5 31.0478 10.5 31.0355C10.5 31.0233 10.5 31.011 10.5 30.9987C10.5 30.9864 10.5 30.974 10.5 30.9617C10.5 30.9494 10.5 30.9371 10.5 30.9247C10.5 30.9124 10.5 30.9 10.5 30.8877C10.5 30.8753 10.5 30.863 10.5 30.8506C10.5 30.8382 10.5 30.8258 10.5 30.8134C10.5 30.801 10.5 30.7886 10.5 30.7762C10.5 30.7638 10.5 30.7514 10.5 30.7389C10.5 30.7265 10.5 30.7141 10.5 30.7016C10.5 30.6892 10.5 30.6767 10.5 30.6642C10.5 30.6518 10.5 30.6393 10.5 30.6268C10.5 30.6143 10.5 30.6018 10.5 30.5893C10.5 30.5768 10.5 30.5643 10.5 30.5518C10.5 30.5393 10.5 30.5267 10.5 30.5142C10.5 30.5017 10.5 30.4891 10.5 30.4765C10.5 30.464 10.5 30.4514 10.5 30.4389C10.5 30.4263 10.5 30.4137 10.5 30.4011C10.5 30.3885 10.5 30.3759 10.5 30.3633C10.5 30.3507 10.5 30.3381 10.5 30.3254C10.5 30.3128 10.5 30.3002 10.5 30.2875C10.5 30.2749 10.5 30.2622 10.5 30.2496C10.5 30.2369 10.5 30.2242 10.5 30.2116C10.5 30.1989 10.5 30.1862 10.5 30.1735C10.5 30.1608 10.5 30.1481 10.5 30.1354C10.5 30.1227 10.5 30.11 10.5 30.0972C10.5 30.0845 10.5 30.0718 10.5 30.059C10.5 30.0463 10.5 30.0335 10.5 30.0207C10.5 30.008 10.5 29.9952 10.5 29.9824C10.5 29.9696 10.5 29.9569 10.5 29.9441C10.5 29.9313 10.5 29.9185 10.5 29.9056C10.5 29.8928 10.5 29.88 10.5 29.8672C10.5 29.8543 10.5 29.8415 10.5 29.8287C10.5 29.8158 10.5 29.8029 10.5 29.7901C10.5 29.7772 10.5 29.7643 10.5 29.7515C10.5 29.7386 10.5 29.7257 10.5 29.7128C10.5 29.6999 10.5 29.687 10.5 29.6741C10.5 29.6612 10.5 29.6482 10.5 29.6353C10.5 29.6224 10.5 29.6095 10.5 29.5965C10.5 29.5836 10.5 29.5706 10.5 29.5576C10.5 29.5447 10.5 29.5317 10.5 29.5187C10.5 29.5058 10.5 29.4928 10.5 29.4798C10.5 29.4668 10.5 29.4538 10.5 29.4408C10.5 29.4278 10.5 29.4147 10.5 29.4017C10.5 29.3887 10.5 29.3757 10.5 29.3626C10.5 29.3496 10.5 29.3365 10.5 29.3235C10.5 29.3104 10.5 29.2973 10.5 29.2843C10.5 29.2712 10.5 29.2581 10.5 29.245C10.5 29.2319 10.5 29.2188 10.5 29.2057C10.5 29.1926 10.5 29.1795 10.5 29.1664C10.5 29.1533 10.5 29.1402 10.5 29.127C10.5 29.1139 10.5 29.1007 10.5 29.0876C10.5 29.0744 10.5 29.0613 10.5 29.0481C10.5 29.035 10.5 29.0218 10.5 29.0086C10.5 28.9954 10.5 28.9822 10.5 28.969C10.5 28.9558 10.5 28.9426 10.5 28.9294C10.5 28.9162 10.5 28.903 10.5 28.8898C10.5 28.8765 10.5 28.8633 10.5 28.8501C10.5 28.8368 10.5 28.8236 10.5 28.8103C10.5 28.7971 10.5 28.7838 10.5 28.7705C10.5 28.7573 10.5 28.744 10.5 28.7307C10.5 28.7174 10.5 28.7041 10.5 28.6908C10.5 28.6775 10.5 28.6642 10.5 28.6509C10.5 28.6376 10.5 28.6242 10.5 28.6109C10.5 28.5976 10.5 28.5843 10.5 28.5709C10.5 28.5576 10.5 28.5442 10.5 28.5309C10.5 28.5175 10.5 28.5041 10.5 28.4908C10.5 28.4774 10.5 28.464 10.5 28.4506C10.5 28.4372 10.5 28.4238 10.5 28.4104C10.5 28.397 10.5 28.3836 10.5 28.3702C10.5 28.3568 10.5 28.3434 10.5 28.3299C10.5 28.3165 10.5 28.3031 10.5 28.2896C10.5 28.2762 10.5 28.2627 10.5 28.2493C10.5 28.2358 10.5 28.2223 10.5 28.2089C10.5 28.1954 10.5 28.1819 10.5 28.1684C10.5 28.155 10.5 28.1415 10.5 28.128C10.5 28.1145 10.5 28.101 10.5 28.0874C10.5 28.0739 10.5 28.0604 10.5 28.0469C10.5 28.0334 10.5 28.0198 10.5 28.0063C10.5 27.9927 10.5 27.9792 10.5 27.9656C10.5 27.9521 10.5 27.9385 10.5 27.925C10.5 27.9114 10.5 27.8978 10.5 27.8842C10.5 27.8706 10.5 27.8571 10.5 27.8435C10.5 27.8299 10.5 27.8163 10.5 27.8027C10.5 27.7891 10.5 27.7754 10.5 27.7618C10.5 27.7482 10.5 27.7346 10.5 27.7209C10.5 27.7073 10.5 27.6937 10.5 27.68C10.5 27.6664 10.5 27.6527 10.5 27.6391C10.5 27.6254 10.5 27.6117 10.5 27.5981C10.5 27.5844 10.5 27.5707 10.5 27.557C10.5 27.5433 10.5 27.5296 10.5 27.5159C10.5 27.5022 10.5 27.4885 10.5 27.4748C10.5 27.4611 10.5 27.4474 10.5 27.4337C10.5 27.4199 10.5 27.4062 10.5 27.3925C10.5 27.3787 10.5 27.365 10.5 27.3512C10.5 27.3375 10.5 27.3237 10.5 27.31C10.5 27.2962 10.5 27.2824 10.5 27.2687C10.5 27.2549 10.5 27.2411 10.5 27.2273C10.5 27.2135 10.5 27.1997 10.5 27.1859C10.5 27.1721 10.5 27.1583 10.5 27.1445C10.5 27.1307 10.5 27.1169 10.5 27.1031C10.5 27.0893 10.5 27.0754 10.5 27.0616C10.5 27.0478 10.5 27.0339 10.5 27.0201C10.5 27.0062 10.5 26.9924 10.5 26.9785C10.5 26.9646 10.5 26.9508 10.5 26.9369C10.5 26.923 10.5 26.9092 10.5 26.8953C10.5 26.8814 10.5 26.8675 10.5 26.8536C10.5 26.8397 10.5 26.8258 10.5 26.8119C10.5 26.798 10.5 26.7841 10.5 26.7702C10.5 26.7562 10.5 26.7423 10.5 26.7284C10.5 26.7144 10.5 26.7005 10.5 26.6866C10.5 26.6726 10.5 26.6587 10.5 26.6447C10.5 26.6308 10.5 26.6168 10.5 26.6028C10.5 26.5889 10.5 26.5749 10.5 26.5609C10.5 26.547 10.5 26.533 10.5 26.519C10.5 26.505 10.5 26.491 10.5 26.477C10.5 26.463 10.5 26.449 10.5 26.435C10.5 26.421 10.5 26.407 10.5 26.3929C10.5 26.3789 10.5 26.3649 10.5 26.3509C10.5 26.3368 10.5 26.3228 10.5 26.3088C10.5 26.2947 10.5 26.2807 10.5 26.2666C10.5 26.2526 10.5 26.2385 10.5 26.2244C10.5 26.2104 10.5 26.1963 10.5 26.1822C10.5 26.1681 10.5 26.1541 10.5 26.14C10.5 26.1259 10.5 26.1118 10.5 26.0977C10.5 26.0836 10.5 26.0695 10.5 26.0554C10.5 26.0413 10.5 26.0272 10.5 26.0131C10.5 25.9989 10.5 25.9848 10.5 25.9707C10.5 25.9566 10.5 25.9424 10.5 25.9283C10.5 25.9141 10.5 25.9 10.5 25.8859C10.5 25.8717 10.5 25.8576 10.5 25.8434C10.5 25.8292 10.5 25.8151 10.5 25.8009C10.5 25.7867 10.5 25.7726 10.5 25.7584C10.5 25.7442 10.5 25.73 10.5 25.7158C10.5 25.7016 10.5 25.6874 10.5 25.6732C10.5 25.659 10.5 25.6448 10.5 25.6306C10.5 25.6164 10.5 25.6022 10.5 25.588C10.5 25.5738 10.5 25.5595 10.5 25.5453C10.5 25.5311 10.5 25.5168 10.5 25.5026C10.5 25.4884 10.5 25.4741 10.5 25.4599C10.5 25.4456 10.5 25.4314 10.5 25.4171C10.5 25.4028 10.5 25.3886 10.5 25.3743C10.5 25.36 10.5 25.3458 10.5 25.3315C10.5 25.3172 10.5 25.3029 10.5 25.2886C10.5 25.2744 10.5 25.2601 10.5 25.2458C10.5 25.2315 10.5 25.2172 10.5 25.2029C10.5 25.1886 10.5 25.1743 10.5 25.1599C10.5 25.1456 10.5 25.1313 10.5 25.117C10.5 25.1027 10.5 25.0883 10.5 25.074C10.5 25.0597 10.5 25.0453 10.5 25.031C10.5 25.0166 10.5 25.0023 10.5 24.9879C10.5 24.9736 10.5 24.9592 10.5 24.9449C10.5 24.9305 10.5 24.9162 10.5 24.9018C10.5 24.8874 10.5 24.873 10.5 24.8587C10.5 24.8443 10.5 24.8299 10.5 24.8155C10.5 24.8011 10.5 24.7867 10.5 24.7724C10.5 24.758 10.5 24.7436 10.5 24.7292C10.5 24.7147 10.5 24.7003 10.5 24.6859C10.5 24.6715 10.5 24.6571 10.5 24.6427C10.5 24.6283 10.5 24.6138 10.5 24.5994C10.5 24.585 10.5 24.5705 10.5 24.5561C10.5 24.5417 10.5 24.5272 10.5 24.5128C10.5 24.4983 10.5 24.4839 10.5 24.4694C10.5 24.455 10.5 24.4405 10.5 24.4261C10.5 24.4116 10.5 24.3971 10.5 24.3827C10.5 24.3682 10.5 24.3537 10.5 24.3392C10.5 24.3248 10.5 24.3103 10.5 24.2958C10.5 24.2813 10.5 24.2668 10.5 24.2523C10.5 24.2378 10.5 24.2233 10.5 24.2088C10.5 24.1943 10.5 24.1798 10.5 24.1653C10.5 24.1508 10.5 24.1363 10.5 24.1218C10.5 24.1073 10.5 24.0928 10.5 24.0782C10.5 24.0637 10.5 24.0492 10.5 24.0346C10.5 24.0201 10.5 24.0056 10.5 23.991C10.5 23.9765 10.5 23.962 10.5 23.9474C10.5 23.9329 10.5 23.9183 10.5 23.9038C10.5 23.8892 10.5 23.8746 10.5 23.8601C10.5 23.8455 10.5 23.831 10.5 23.8164C10.5 23.8018 10.5 23.7872 10.5 23.7727C10.5 23.7581 10.5 23.7435 10.5 23.7289C10.5 23.7144 10.5 23.6998 10.5 23.6852C10.5 23.6706 10.5 23.656 10.5 23.6414C10.5 23.6268 10.5 23.6122 10.5 23.5976C10.5 23.583 10.5 23.5684 10.5 23.5538C10.5 23.5392 10.5 23.5245 10.5 23.5099C10.5 23.4953 10.5 23.4807 10.5 23.4661C10.5 23.4514 10.5 23.4368 10.5 23.4222C10.5 23.4076 10.5 23.3929 10.5 23.3783C10.5 23.3637 10.5 23.349 10.5 23.3344C10.5 23.3197 10.5 23.3051 10.5 23.2904C10.5 23.2758 10.5 23.2611 10.5 23.2465C10.5 23.2318 10.5 23.2171 10.5 23.2025C10.5 23.1878 10.5 23.1732 10.5 23.1585C10.5 23.1438 10.5 23.1291 10.5 23.1145C10.5 23.0998 10.5 23.0851 10.5 23.0704C10.5 23.0558 10.5 23.0411 10.5 23.0264C10.5 23.0117 10.5 22.997 10.5 22.9823C10.5 22.9676 10.5 22.9529 10.5 22.9382C10.5 22.9235 10.5 22.9088 10.5 22.8941C10.5 22.8794 10.5 22.8647 10.5 22.85C10.5 22.8353 10.5 22.8206 10.5 22.8059C10.5 22.7911 10.5 22.7764 10.5 22.7617C10.5 22.747 10.5 22.7322 10.5 22.7175C10.5 22.7028 10.5 22.6881 10.5 22.6733C10.5 22.6586 10.5 22.6439 10.5 22.6291C10.5 22.6144 10.5 22.5996 10.5 22.5849C10.5 22.5701 10.5 22.5554 10.5 22.5407C10.5 22.5259 10.5 22.5112 10.5 22.4964C10.5 22.4816 10.5 22.4669 10.5 22.4521C10.5 22.4374 10.5 22.4226 10.5 22.4078C10.5 22.3931 10.5 22.3783 10.5 22.3635C10.5 22.3488 10.5 22.334 10.5 22.3192C10.5 22.3044 10.5 22.2897 10.5 22.2749C10.5 22.2601 10.5 22.2453 10.5 22.2305C10.5 22.2157 10.5 22.201 10.5 22.1862C10.5 22.1714 10.5 22.1566 10.5 22.1418C10.5 22.127 10.5 22.1122 10.5 22.0974C10.5 22.0826 10.5 22.0678 10.5 22.053C10.5 22.0382 10.5 22.0234 10.5 22.0086C10.5 21.9938 10.5 21.979 10.5 21.9641C10.5 21.9493 10.5 21.9345 10.5 21.9197C10.5 21.9049 10.5 21.8901 10.5 21.8752C10.5 21.8604 10.5 21.8456 10.5 21.8308C10.5 21.8159 10.5 21.8011 10.5 21.7863C10.5 21.7714 10.5 21.7566 10.5 21.7418C10.5 21.7269 10.5 21.7121 10.5 21.6973C10.5 21.6824 10.5 21.6676 10.5 21.6527C10.5 21.6379 10.5 21.6231 10.5 21.6082C10.5 21.5934 10.5 21.5785 10.5 21.5637C10.5 21.5488 10.5 21.534 10.5 21.5191C10.5 21.5043 10.5 21.4894 10.5 21.4745C10.5 21.4597 10.5 21.4448 10.5 21.43C10.5 21.4151 10.5 21.4002 10.5 21.3854C10.5 21.3705 10.5 21.3556 10.5 21.3408C10.5 21.3259 10.5 21.311 10.5 21.2961C10.5 21.2813 10.5 21.2664 10.5 21.2515C10.5 21.2366 10.5 21.2218 10.5 21.2069C10.5 21.192 10.5 21.1771 10.5 21.1622C10.5 21.1474 10.5 21.1325 10.5 21.1176C10.5 21.1027 10.5 21.0878 10.5 21.0729C10.5 21.058 10.5 21.0431 10.5 21.0282C10.5 21.0134 10.5 20.9985 10.5 20.9836C10.5 20.9687 10.5 20.9538 10.5 20.9389C10.5 20.924 10.5 20.9091 10.5 20.8942C10.5 20.8793 10.5 20.8644 10.5 20.8495C10.5 20.8346 10.5 20.8196 10.5 20.8047C10.5 20.7898 10.5 20.7749 10.5 20.76C10.5 20.7451 10.5 20.7302 10.5 20.7153C10.5 20.7004 10.5 20.6855 10.5 20.6705C10.5 20.6556 10.5 20.6407 10.5 20.6258C10.5 20.6109 10.5 20.5959 10.5 20.581C10.5 20.5661 10.5 20.5512 10.5 20.5363C10.5 20.5213 10.5 20.5064 10.5 20.4915C10.5 20.4766 10.5 20.4616 10.5 20.4467C10.5 20.4318 10.5 20.4169 10.5 20.4019C10.5 20.387 10.5 20.3721 10.5 20.3571C10.5 20.3422 10.5 20.3273 10.5 20.3123C10.5 20.2974 10.5 20.2825 10.5 20.2675C10.5 20.2526 10.5 20.2376 10.5 20.2227C10.5 20.2078 10.5 20.1928 10.5 20.1779C10.5 20.1629 10.5 20.148 10.5 20.1331C10.5 20.1181 10.5 20.1032 10.5 20.0882C10.5 20.0733 10.5 20.0583 10.5 20.0434C10.5 20.0285 10.5 20.0135 10.5 19.9986C10.5 19.9836 10.5 19.9687 10.5 19.9537C10.5 19.9388 10.5 19.9238 10.5 19.9089C10.5 19.8939 10.5 19.879 10.5 19.864C10.5 19.8491 10.5 19.8341 10.5 19.8192C10.5 19.8042 10.5 19.7892 10.5 19.7743C10.5 19.7593 10.5 19.7444 10.5 19.7294C10.5 19.7145 10.5 19.6995 10.5 19.6846C10.5 19.6696 10.5 19.6546 10.5 19.6397C10.5 19.6247 10.5 19.6098 10.5 19.5948C10.5 19.5798 10.5 19.5649 10.5 19.5499C10.5 19.535 10.5 19.52 10.5 19.505C10.5 19.4901 10.5 19.4751 10.5 19.4602C10.5 19.4452 10.5 19.4302 10.5 19.4153C10.5 19.4003 10.5 19.3853 10.5 19.3704C10.5 19.3554 10.5 19.3405 10.5 19.3255C10.5 19.3105 10.5 19.2956 10.5 19.2806C10.5 19.2656 10.5 19.2507 10.5 19.2357C10.5 19.2207 10.5 19.2058 10.5 19.1908C10.5 19.1758 10.5 19.1609 10.5 19.1459C10.5 19.1309 10.5 19.116 10.5 19.101C10.5 19.086 10.5 19.0711 10.5 19.0561C10.5 19.0411 10.5 19.0262 10.5 19.0112C10.5 18.9962 10.5 18.9813 10.5 18.9663C10.5 18.9513 10.5 18.9364 10.5 18.9214C10.5 18.9064 10.5 18.8915 10.5 18.8765C10.5 18.8615 10.5 18.8465 10.5 18.8316C10.5 18.8166 10.5 18.8016 10.5 18.7867C10.5 18.7717 10.5 18.7567 10.5 18.7418C10.5 18.7268 10.5 18.7118 10.5 18.6969C10.5 18.6819 10.5 18.6669 10.5 18.652C10.5 18.637 10.5 18.622 10.5 18.6071C10.5 18.5921 10.5 18.5771 10.5 18.5622C10.5 18.5472 10.5 18.5322 10.5 18.5173C10.5 18.5023 10.5 18.4873 10.5 18.4724C10.5 18.4574 10.5 18.4424 10.5 18.4275C10.5 18.4125 10.5 18.3976 10.5 18.3826C10.5 18.3676 10.5 18.3527 10.5 18.3377C10.5 18.3227 10.5 18.3078 10.5 18.2928C10.5 18.2778 10.5 18.2629 10.5 18.2479C10.5 18.233 10.5 18.218 10.5 18.203C10.5 18.1881 10.5 18.1731 10.5 18.1582C10.5 18.1432 10.5 18.1282 10.5 18.1133C10.5 18.0983 10.5 18.0834 10.5 18.0684C10.5 18.0534 10.5 18.0385 10.5 18.0235C10.5 18.0086 10.5 17.9936 10.5 17.9787C10.5 17.9637 10.5 17.9488 10.5 17.9338C10.5 17.9188 10.5 17.9039 10.5 17.8889C10.5 17.874 10.5 17.859 10.5 17.8441C10.5 17.8291 10.5 17.8142 10.5 17.7992C10.5 17.7843 10.5 17.7693 10.5 17.7544C10.5 17.7394 10.5 17.7245 10.5 17.7095C10.5 17.6946 10.5 17.6797 10.5 17.6647C10.5 17.6498 10.5 17.6348 10.5 17.6199C10.5 17.6049 10.5 17.59 10.5 17.5751C10.5 17.5601 10.5 17.5452 10.5 17.5302C10.5 17.5153 10.5 17.5004 10.5 17.4854C10.5 17.4705 10.5 17.4555 10.5 17.4406C10.5 17.4257 10.5 17.4107 10.5 17.3958C10.5 17.3809 10.5 17.3659 10.5 17.351C10.5 17.3361 10.5 17.3211 10.5 17.3062C10.5 17.2913 10.5 17.2764 10.5 17.2614C10.5 17.2465 10.5 17.2316 10.5 17.2167C10.5 17.2017 10.5 17.1868 10.5 17.1719C10.5 17.157 10.5 17.142 10.5 17.1271C10.5 17.1122 10.5 17.0973 10.5 17.0824C10.5 17.0675 10.5 17.0525 10.5 17.0376C10.5 17.0227 10.5 17.0078 10.5 16.9929C10.5 16.978 10.5 16.9631 10.5 16.9482C10.5 16.9333 10.5 16.9183 10.5 16.9034C10.5 16.8885 10.5 16.8736 10.5 16.8587C10.5 16.8438 10.5 16.8289 10.5 16.814C10.5 16.7991 10.5 16.7842 10.5 16.7693C10.5 16.7544 10.5 16.7395 10.5 16.7246C10.5 16.7097 10.5 16.6949 10.5 16.68C10.5 16.6651 10.5 16.6502 10.5 16.6353C10.5 16.6204 10.5 16.6055 10.5 16.5906C10.5 16.5757 10.5 16.5609 10.5 16.546C10.5 16.5311 10.5 16.5162 10.5 16.5013C10.5 16.4865 10.5 16.4716 10.5 16.4567C10.5 16.4418 10.5 16.427 10.5 16.4121C10.5 16.3972 10.5 16.3824 10.5 16.3675C10.5 16.3526 10.5 16.3378 10.5 16.3229C10.5 16.308 10.5 16.2932 10.5 16.2783C10.5 16.2635 10.5 16.2486 10.5 16.2337C10.5 16.2189 10.5 16.204 10.5 16.1892C10.5 16.1743 10.5 16.1595 10.5 16.1446C10.5 16.1298 10.5 16.1149 10.5 16.1001C10.5 16.0852 10.5 16.0704 10.5 16.0556C10.5 16.0407 10.5 16.0259 10.5 16.011C10.5 15.9962 10.5 15.9814 10.5 15.9665C10.5 15.9517 10.5 15.9369 10.5 15.922C10.5 15.9072 10.5 15.8924 10.5 15.8776C10.5 15.8627 10.5 15.8479 10.5 15.8331C10.5 15.8183 10.5 15.8035 10.5 15.7887C10.5 15.7738 10.5 15.759 10.5 15.7442C10.5 15.7294 10.5 15.7146 10.5 15.6998C10.5 15.685 10.5 15.6702 10.5 15.6554C10.5 15.6406 10.5 15.6258 10.5 15.611C10.5 15.5962 10.5 15.5814 10.5 15.5666C10.5 15.5518 10.5 15.537 10.5 15.5222C10.5 15.5074 10.5 15.4927 10.5 15.4779C10.5 15.4631 10.5 15.4483 10.5 15.4335C10.5 15.4188 10.5 15.404 10.5 15.3892C10.5 15.3744 10.5 15.3597 10.5 15.3449C10.5 15.3301 10.5 15.3154 10.5 15.3006C10.5 15.2858 10.5 15.2711 10.5 15.2563C10.5 15.2416 10.5 15.2268 10.5 15.2121C10.5 15.1973 10.5 15.1826 10.5 15.1678C10.5 15.1531 10.5 15.1383 10.5 15.1236C10.5 15.1088 10.5 15.0941 10.5 15.0794C10.5 15.0646 10.5 15.0499 10.5 15.0352C10.5 15.0204 10.5 15.0057 10.5 14.991C10.5 14.9763 10.5 14.9615 10.5 14.9468C10.5 14.9321 10.5 14.9174 10.5 14.9027C10.5 14.888 10.5 14.8733 10.5 14.8585C10.5 14.8438 10.5 14.8291 10.5 14.8144C10.5 14.7997 10.5 14.785 10.5 14.7703C10.5 14.7556 10.5 14.741 10.5 14.7263C10.5 14.7116 10.5 14.6969 10.5 14.6822C10.5 14.6675 10.5 14.6528 10.5 14.6382C10.5 14.6235 10.5 14.6088 10.5 14.5941C10.5 14.5795 10.5 14.5648 10.5 14.5501C10.5 14.5355 10.5 14.5208 10.5 14.5061C10.5 14.4915 10.5 14.4768 10.5 14.4622C10.5 14.4475 10.5 14.4329 10.5 14.4182C10.5 14.4036 10.5 14.3889 10.5 14.3743C10.5 14.3597 10.5 14.345 10.5 14.3304C10.5 14.3158 10.5 14.3011 10.5 14.2865C10.5 14.2719 10.5 14.2573 10.5 14.2426C10.5 14.228 10.5 14.2134 10.5 14.1988C10.5 14.1842 10.5 14.1696 10.5 14.155C10.5 14.1404 10.5 14.1257 10.5 14.1111C10.5 14.0965 10.5 14.082 10.5 14.0674C10.5 14.0528 10.5 14.0382 10.5 14.0236C10.5 14.009 10.5 13.9944 10.5 13.9798C10.5 13.9653 10.5 13.9507 10.5 13.9361C10.5 13.9216 10.5 13.907 10.5 13.8924C10.5 13.8779 10.5 13.8633 10.5 13.8487C10.5 13.8342 10.5 13.8196 10.5 13.8051C10.5 13.7905 10.5 13.776 10.5 13.7614C10.5 13.7469 10.5 13.7324 10.5 13.7178C10.5 13.7033 10.5 13.6888 10.5 13.6742C10.5 13.6597 10.5 13.6452 10.5 13.6307C10.5 13.6161 10.5 13.6016 10.5 13.5871C10.5 13.5726 10.5 13.5581 10.5 13.5436C10.5 13.5291 10.5 13.5146 10.5 13.5001L7.5 13.5001Z" fill="#362A2A"/>
</svg>
