<svg width="1920" height="270" viewBox="0 0 1920 270" fill="none" xmlns="http://www.w3.org/2000/svg">
<path d="M0 71.7778L128.798 28.2787C208.409 1.39165 295.249 5.65224 371.845 40.2033L410.344 57.5693C479.923 88.9548 560.119 86.3249 627.492 50.4482C695.815 14.0652 777.264 11.901 847.424 44.6041L870.436 55.3308C941.018 88.2304 1022.67 87.5682 1092.71 53.5281C1154.17 23.6569 1224.95 19.3298 1289.59 41.4926L1321.77 52.5234C1400.7 79.5859 1487.26 73.2439 1561.41 34.9657C1627.53 0.829618 1703.82 -8.04467 1776.01 10.0033L1920 46V270H0V71.7778Z" fill="url(#paint0_linear_22_362)"/>
<defs>
<linearGradient id="paint0_linear_22_362" x1="0" y1="126" x2="1920" y2="126" gradientUnits="userSpaceOnUse">
<stop stop-color="#212A3E"/>
<stop offset="0.5" stop-color="#374562"/>
<stop offset="0.963542" stop-color="#4B608E"/>
<stop offset="1" stop-color="#6FB1FC"/>
</linearGradient>
</defs>
</svg>
