<svg width="379" height="101" viewBox="0 0 379 101" fill="none" xmlns="http://www.w3.org/2000/svg">
<path d="M0 50.5C0 22.6096 22.6096 0 50.5 0H328.5C356.39 0 379 22.6096 379 50.5C379 78.3904 356.39 101 328.5 101H50.5C22.6096 101 0 78.3904 0 50.5Z" fill="url(#paint0_linear_34_123)" fill-opacity="0.37"/>
<path d="M0 50.5C0 22.6096 22.6096 0 50.5 0H328.5C356.39 0 379 22.6096 379 50.5C379 78.3904 356.39 101 328.5 101H50.5C22.6096 101 0 78.3904 0 50.5Z" fill="url(#paint1_linear_34_123)" fill-opacity="0.33"/>
<path d="M0 50.5C0 22.6096 22.6096 0 50.5 0H328.5C356.39 0 379 22.6096 379 50.5C379 78.3904 356.39 101 328.5 101H50.5C22.6096 101 0 78.3904 0 50.5Z" fill="url(#paint2_linear_34_123)" fill-opacity="0.33"/>
<defs>
<linearGradient id="paint0_linear_34_123" x1="196.5" y1="-71.273" x2="196.5" y2="24.7128" gradientUnits="userSpaceOnUse">
<stop offset="0.145833" stop-color="#84A7EC"/>
<stop offset="0.567708" stop-color="#84A7EC" stop-opacity="0.54"/>
</linearGradient>
<linearGradient id="paint1_linear_34_123" x1="196.5" y1="-71.273" x2="196.5" y2="24.7128" gradientUnits="userSpaceOnUse">
<stop offset="0.213542" stop-color="#3E4E6F" stop-opacity="0.49"/>
<stop offset="0.661458" stop-color="#3E4E6F" stop-opacity="0"/>
</linearGradient>
<linearGradient id="paint2_linear_34_123" x1="196.5" y1="-71.273" x2="196.5" y2="24.7128" gradientUnits="userSpaceOnUse">
<stop offset="0.411458" stop-color="#2A354D" stop-opacity="0.88"/>
<stop offset="0.901042" stop-color="#2A354D" stop-opacity="0"/>
</linearGradient>
</defs>
</svg>
