<svg width="1920" height="259" viewBox="0 0 1920 259" fill="none" xmlns="http://www.w3.org/2000/svg">
<path d="M0 37.2132L66.7873 18.5755C166.068 -9.1297 271.484 -5.47507 368.607 29.0391L420.575 47.5064C509.555 79.127 607.133 76.4053 694.213 39.874C782.558 2.81198 881.658 0.567705 971.59 33.5924L1040.71 58.9756C1108.31 83.8001 1180.48 93.7286 1252.27 88.0817L1371.08 78.7374C1411.98 75.5201 1452.33 67.2799 1491.23 54.2028L1543.12 36.7536C1648.27 1.39804 1762.19 2.01403 1866.95 38.5046L1920 56.9843V251.016L0 259V37.2132Z" fill="url(#paint0_linear_22_279)" fill-opacity="0.5"/>
<defs>
<linearGradient id="paint0_linear_22_279" x1="-100.737" y1="115.282" x2="2331.62" y2="115.282" gradientUnits="userSpaceOnUse">
<stop stop-color="#0052D4"/>
<stop offset="0.5" stop-color="#4364F7"/>
<stop offset="1" stop-color="#6FB1FC"/>
</linearGradient>
</defs>
</svg>
