<svg width="379" height="106" viewBox="0 0 379 106" fill="none" xmlns="http://www.w3.org/2000/svg">
<path d="M0 53C0 23.7289 23.7289 0 53 0H326C355.271 0 379 23.7289 379 53C379 82.2711 355.271 106 326 106H53C23.7289 106 0 82.2711 0 53Z" fill="url(#paint0_linear_34_136)" fill-opacity="0.37"/>
<path d="M0 53C0 23.7289 23.7289 0 53 0H326C355.271 0 379 23.7289 379 53C379 82.2711 355.271 106 326 106H53C23.7289 106 0 82.2711 0 53Z" fill="url(#paint1_linear_34_136)" fill-opacity="0.33"/>
<path d="M0 53C0 23.7289 23.7289 0 53 0H326C355.271 0 379 23.7289 379 53C379 82.2711 355.271 106 326 106H53C23.7289 106 0 82.2711 0 53Z" fill="url(#paint2_linear_34_136)" fill-opacity="0.33"/>
<defs>
<linearGradient id="paint0_linear_34_136" x1="196.5" y1="-74.8014" x2="196.5" y2="25.9362" gradientUnits="userSpaceOnUse">
<stop offset="0.145833" stop-color="#84A7EC"/>
<stop offset="0.567708" stop-color="#84A7EC" stop-opacity="0.54"/>
</linearGradient>
<linearGradient id="paint1_linear_34_136" x1="196.5" y1="-74.8014" x2="196.5" y2="25.9362" gradientUnits="userSpaceOnUse">
<stop offset="0.213542" stop-color="#3E4E6F" stop-opacity="0.49"/>
<stop offset="0.661458" stop-color="#3E4E6F" stop-opacity="0"/>
</linearGradient>
<linearGradient id="paint2_linear_34_136" x1="196.5" y1="-74.8014" x2="196.5" y2="25.9362" gradientUnits="userSpaceOnUse">
<stop offset="0.411458" stop-color="#2A354D" stop-opacity="0.88"/>
<stop offset="0.901042" stop-color="#2A354D" stop-opacity="0"/>
</linearGradient>
</defs>
</svg>
